<?xml version="1.0" standalone="no"?>
<!DOCTYPE svg PUBLIC "-//W3C//DTD SVG 1.1//EN" "http://www.w3.org/Graphics/SVG/1.1/DTD/svg11.dtd">
<svg width="1200px" height="1200px" version="1.1" xmlns="http://www.w3.org/2000/svg" xmlns:xlink="http://www.w3.org/1999/xlink" xml:space="preserve" style="fill-rule:evenodd;clip-rule:evenodd;stroke-linejoin:round;stroke-miterlimit:1.41421;">
    <g>
        <g id="Layer 5 Image">
            <rect x="656.48" y="317.681" width="2.641" height="0.24" style="fill:rgb(113,151,70);fill-rule:nonzero;"/>
            <rect x="659.121" y="317.681" width="2.639" height="0.24" style="fill:rgb(147,176,114);fill-rule:nonzero;"/>
            <path d="M550.16,329.681C550.649,329.13 552.153,329.594 553.04,329.441L553.04,329.681Z" style="fill:rgb(227,234,218);"/>
            <rect x="553.04" y="329.441" width="3.84" height="0.24" style="fill:rgb(187,205,167);"/>
            <path d="M556.88,329.681L556.88,329.441C558.005,329.596 559.754,329.127 560.48,329.681Z" style="fill:rgb(227,234,218);"/>
            <path d="M551.12,329.92L551.12,329.68L554.48,329.68C553.833,330.233 552.165,329.765 551.12,329.92" style="fill:rgb(113,151,70);"/>
            <path d="M824.48,443.2C824.673,443.246 824.719,443.441 824.96,443.44C824.947,443.853 825.144,444.055 825.44,444.16C824.991,444.898 824.3,443.883 824.48,443.2" style="fill:rgb(147,176,114);"/>
            <path d="M873.439,491.92C873.827,493.136 873.848,498.067 873.439,500.08Z" style="fill:rgb(227,234,218);"/>
            <rect x="873.2" y="491.92" width="0.239" height="3.84" style="fill:rgb(147,176,114);"/>
            <rect x="873.2" y="495.76" width="0.239" height="2.4" style="fill:rgb(113,151,70);"/>
            <path d="M291.68,525.041L291.92,525.041C291.768,525.849 292.229,527.27 291.68,527.681Z" style="fill:rgb(113,151,70);"/>
            <path d="M291.44,528.4C291.592,527.592 291.131,526.171 291.68,525.76L291.68,528.4L291.44,528.4Z" style="fill:rgb(187,205,167);"/>
            <path d="M291.44,529.601L291.44,533.201C291.041,532.551 291.041,530.25 291.44,529.601" style="fill:rgb(227,234,218);"/>
            <path d="M863.6,614.561C863.469,611.53 864.314,615.005 863.6,615.761L863.6,614.561Z" style="fill:rgb(227,234,218);"/>
            <path d="M863.6,618.4C864.153,619.047 863.686,620.714 863.84,621.76C863.287,621.113 863.755,619.445 863.6,618.4" style="fill:rgb(113,151,70);"/>
            <path d="M863.84,622.481C864.239,626.402 864.24,632 863.84,635.919L863.84,622.481Z" style="fill:rgb(113,151,70);"/>
            <path d="M865.04,624.4C865.386,623.125 865.267,625.956 865.28,626.56L865.04,626.56L865.04,624.4Z" style="fill:rgb(227,234,218);"/>
            <path d="M865.04,626.561L865.28,626.561L865.28,629.92C864.727,629.274 865.194,627.606 865.04,626.561" style="fill:rgb(187,205,167);"/>
            <path d="M865.28,628.481C865.678,629.13 865.678,631.431 865.28,632.081Z" style="fill:rgb(227,234,218);"/>
            <path d="M251.84,637.12C251.441,635.357 251.441,631.924 251.84,630.16L251.84,637.12Z" style="fill:rgb(187,205,167);"/>
            <path d="M865.28,631.841L865.28,634.24L865.04,634.24C865.19,633.511 864.732,632.173 865.28,631.841" style="fill:rgb(187,205,167);"/>
            <path d="M865.04,634.24L865.28,634.24C865.129,634.969 865.587,636.307 865.04,636.64L865.04,634.24Z" style="fill:rgb(227,234,218);"/>
            <path d="M466.88,666.16L466.88,665.92C468.323,666.077 470.396,665.604 471.44,666.16Z" style="fill:rgb(113,151,70);"/>
            <path d="M479.12,666.16C479.609,665.609 481.113,666.073 482,665.92L482,666.16Z" style="fill:rgb(113,151,70);"/>
            <path d="M473.36,666.4C472.235,666.245 470.486,666.713 469.76,666.16L473.36,666.16L473.36,666.4Z" style="fill:rgb(227,234,218);"/>
            <rect x="473.36" y="666.16" width="6.48" height="0.24" style="fill:rgb(187,205,167);"/>
            <path d="M479.84,666.4L479.84,666.16L482.96,666.16C482.392,666.713 480.806,666.246 479.84,666.4" style="fill:rgb(227,234,218);"/>
            <path d="M638,683.92C636.715,683.916 637.047,685.528 637.04,686.801L637.04,697.36C636.64,693.44 636.64,687.841 637.04,683.92L638,683.92Z" style="fill:rgb(113,151,70);"/>
            <path d="M638.96,684.16L638.96,683.92L641.6,683.92C641.189,684.47 639.768,684.009 638.96,684.16" style="fill:rgb(187,205,167);"/>
            <path d="M638,684.881C638.037,684.598 637.959,684.199 638.24,684.16C638.088,684.969 638.549,686.39 638,686.801L638,684.881Z" style="fill:rgb(227,234,218);"/>
            <path d="M638,684.881L638,688.24L637.76,688.24C637.915,687.195 637.447,685.527 638,684.881" style="fill:rgb(187,205,167);"/>
            <path d="M701.84,687.761L702.56,687.761C702.628,688.388 702.473,688.793 701.84,688.721L701.84,687.761Z" style="fill:rgb(227,234,218);"/>
            <rect x="637.76" y="688.24" width="0.24" height="5.521" style="fill:rgb(227,234,218);"/>
            <path d="M637.76,693.761L638,693.761L638,697.601C637.446,696.795 637.916,694.965 637.76,693.761" style="fill:rgb(187,205,167);"/>
            <path d="M778.16,717.04C777.589,717.438 775.37,717.438 774.8,717.04L778.16,717.04Z" style="fill:rgb(187,205,167);"/>
            <path d="M365.6,718.721L370.64,718.721L370.64,718.96C369.038,718.803 366.803,719.278 365.6,718.721" style="fill:rgb(227,234,218);"/>
            <rect x="370.64" y="718.721" width="7.92" height="0.239" style="fill:rgb(187,205,167);"/>
            <path d="M519.68,723.761L519.92,723.761C519.767,724.648 520.231,726.152 519.68,726.641Z" style="fill:rgb(113,151,70);"/>
            <path d="M519.44,728.561L519.68,728.561C519.528,729.369 519.989,730.79 519.44,731.201Z" style="fill:rgb(113,151,70);"/>
            <path d="M644,866.32L644,868.72L643.76,868.72C643.91,867.991 643.452,866.653 644,866.32" style="fill:rgb(113,151,70);"/>
            <path d="M643.04,879.761L643.04,882.16L642.8,882.16C642.95,881.431 642.492,880.093 643.04,879.761" style="fill:rgb(113,151,70);"/>
            <rect x="497.36" y="885.761" width="0.24" height="2.399" style="fill:rgb(187,205,167);"/>
            <path d="M644.24,897.761C644.441,895.937 644.553,898.776 644.479,899.441L644.24,899.441L644.24,897.761Z" style="fill:rgb(227,234,218);"/>
            <path d="M566.72,962.801C567.134,962.403 569.186,962.403 569.6,962.801Z" style="fill:rgb(113,151,70);"/>
            <path d="M557.12,962.801L566.96,962.801L566.96,963.04C563.76,962.881 559.921,963.36 557.12,962.801" style="fill:rgb(227,234,218);"/>
            <rect x="566.96" y="962.801" width="4.56" height="0.239" style="fill:rgb(187,205,167);"/>
            <path d="M578.48,963.04L578.48,962.801L581.84,962.801C581.193,963.353 579.525,962.886 578.48,963.04" style="fill:rgb(187,205,167);"/>
            <path d="M501.68,344.32C502.168,343.923 503.704,342.508 505.28,342.4L505.28,342.64C505.001,342.601 504.853,342.693 504.8,342.88C503.228,342.828 503.098,344.218 501.68,344.32" style="fill:rgb(227,234,218);"/>
            <path d="M373.52,403.601C374.456,402.376 376.251,402.012 377.6,401.201C377.537,402.338 376.018,402.018 375.44,402.641C374.682,402.843 374.278,403.399 373.52,403.601" style="fill:rgb(227,234,218);"/>
            <path d="M362.96,410.32C364.388,408.629 366.43,407.55 368.48,406.48C367.053,407.853 364.872,408.472 363.68,410.08C363.292,410.012 363.267,410.307 362.96,410.32" style="fill:rgb(227,234,218);"/>
            <path d="M329.84,437.44C329.667,437.328 331.031,435.45 331.52,436C330.834,436.354 330.662,437.222 329.84,437.44" style="fill:rgb(227,234,218);"/>
            <path d="M326.24,441.76C326.502,441.142 326.846,440.607 327.44,440.32C327.584,440.944 327.344,441.184 326.72,441.04C326.802,441.522 326.671,441.791 326.24,441.76" style="fill:rgb(147,176,114);"/>
            <path d="M306.08,472.24C306.762,470.92 307.516,468.4 308.24,467.92C308.26,468.261 308.279,468.6 308,468.64C307.588,469.188 307.324,469.885 307.04,470.56C307.037,471.438 306.565,471.846 306.08,472.24" style="fill:rgb(227,234,218);"/>
            <path d="M290.96,564.4C292.126,563.405 293.387,562.506 294.8,561.76C293.632,562.753 292.358,563.638 290.96,564.4" style="fill:rgb(227,234,218);"/>
            <path d="M285.44,569.44C285.51,568.951 286.089,568.969 286.16,568.48C284.589,569.168 282.342,570.317 280.4,571.6C278.564,572.812 276.874,574.851 275.36,574.72C276.514,574.619 275.074,574.633 275.36,574C280.885,571.205 285.191,567.191 290.72,564.4C288.359,566.359 285.169,567.49 283.04,569.68C285.051,568.811 286.557,567.437 288.8,566.8C288.754,566.994 288.559,567.039 288.56,567.28C287.266,567.746 286.676,568.917 285.44,569.44" style="fill:rgb(227,234,218);"/>
            <path d="M267.2,675.04C266.071,674.649 265.798,673.403 265.28,672.4C266.166,673.035 266.351,674.369 267.2,675.04" style="fill:rgb(147,176,114);"/>
            <path d="M272,680.801C271.306,680.695 270.906,680.295 270.8,679.601C271.278,679.843 271.64,680.2 272,680.561L272,680.801Z" style="fill:rgb(113,151,70);"/>
            <path d="M280.4,689.44C279.585,689.135 279.025,688.575 278.72,687.76C279.423,688.177 280.067,688.653 280.4,689.44" style="fill:rgb(113,151,70);"/>
            <path d="M398,719.681C396.742,719.099 396.27,717.731 393.92,718.241C394.099,717.7 395.266,718.147 395.84,718L396.8,718C396.986,718.775 397.405,719.316 398,719.681" style="fill:rgb(187,205,167);"/>
            <path d="M422.48,748.481C421.701,748.059 421.28,747.28 420.8,746.561C421.508,747.053 422.133,747.626 422.48,748.481" style="fill:rgb(187,205,167);"/>
            <path d="M440.72,770.32C442.228,771.852 443.721,773.399 445.04,775.12C443.511,773.609 442.016,772.064 440.72,770.32" style="fill:rgb(187,205,167);"/>
            <path d="M463.28,796.721C462.501,796.299 462.08,795.521 461.6,794.801C462.308,795.293 462.933,795.867 463.28,796.721" style="fill:rgb(187,205,167);"/>
            <path d="M494,928.481C492.871,927.592 492.852,925.34 493.76,924.16C493.489,926.111 493.727,926.74 494,928.481" style="fill:rgb(187,205,167);"/>
            <path d="M500.72,939.04C502.26,940.38 503.7,941.82 505.04,943.36C503.5,942.02 502.06,940.581 500.72,939.04" style="fill:rgb(227,234,218);"/>
            <path d="M514.4,949.841C515.498,950.502 516.664,951.097 517.52,952C516.422,951.338 515.256,950.744 514.4,949.841" style="fill:rgb(227,234,218);"/>
            <path d="M521.12,953.92C522.288,954.672 523.869,955.012 524.96,955.841C523.568,955.313 522.041,954.919 521.12,953.92" style="fill:rgb(227,234,218);"/>
            <path d="M527.84,956.801C530.811,957.349 532.845,958.835 536.24,958.96C536.519,958.922 536.667,959.014 536.72,959.2C532.977,959.183 530.647,957.753 527.84,956.801" style="fill:rgb(227,234,218);"/>
            <path d="M650,941.2C649.124,942.724 647.864,943.864 646.399,944.801C647.433,943.513 648.955,942.716 649.76,941.2L650,941.2Z" style="fill:rgb(227,234,218);"/>
            <path d="M705.439,740.561C706.74,739.142 708.255,737.937 709.28,736.24C709.942,735.623 710.381,734.783 711.2,734.321C712.871,732.792 714.371,731.091 715.76,729.281C716.161,728.882 716.56,728.482 716.96,728.081C718.148,726.709 719.525,725.526 720.559,724C721.464,723.386 722.147,722.549 722.719,721.601C722.779,721.34 723.197,721.438 723.2,721.12C724.584,719.705 726.262,718.583 727.28,716.801C727.823,716.224 728.172,715.454 728.96,715.12C729.826,714.307 730.892,713.694 731.359,712.481C731.575,712.056 731.939,711.78 732.08,711.281C733.236,708.431 735.219,709.603 738.32,710.561C747.736,713.469 759.114,716.177 770,716.801C770.41,717.35 771.832,716.889 772.639,717.04L774.799,717.04C775.37,717.439 777.588,717.439 778.16,717.04L779.359,717.04C781.202,717.441 784.716,717.441 786.559,717.04C796.002,715.763 805.277,714.317 812.479,710.801C812.894,710.415 813.963,710.685 814.16,710.081C814.438,710.12 814.587,710.028 814.639,709.841C815.576,709.497 816.354,708.995 817.04,708.401C820.247,705.928 824.396,704.398 827.599,701.92C828.197,701.477 828.954,701.196 829.28,700.481C829.782,699.784 830.931,699.733 831.439,699.04C832.084,698.646 832.841,698.364 833.12,697.601C833.275,697.357 833.671,697.353 833.599,696.881C834.612,696.614 835.429,696.151 835.76,695.201L836,695.201C836.695,694.615 837.335,693.976 837.919,693.281C838.814,692.816 839.056,691.697 839.839,691.12C840.825,690.506 841.384,689.465 842,688.481C842.4,687.922 842.995,687.555 843.439,687.04C844.316,686.317 844.957,685.359 845.36,684.161C845.768,684.01 845.755,683.436 846.08,683.201C847.168,682.608 847.551,681.312 848.24,680.321C848.473,679.035 849.681,678.723 849.919,677.441C850.143,677.264 850.284,677.004 850.399,676.721C851.124,675.845 851.637,674.759 852.321,673.841C853.565,671.086 855.568,669.089 856.639,666.161C857.161,665.642 857.318,664.76 857.599,664C858.893,660.014 860.794,656.636 861.919,652.481C863.303,648.503 864.674,644.516 864.799,639.281L864.799,639.04C865.346,638.708 864.889,637.37 865.04,636.641C865.586,636.308 865.128,634.97 865.28,634.241L865.28,632.081C865.678,631.431 865.678,629.13 865.28,628.481L865.28,626.561C865.266,625.957 865.385,623.125 865.04,624.401C864.603,621.797 864.371,618.99 863.599,616.721L863.599,615.761C864.313,615.005 863.468,611.53 863.599,614.561C863.274,614.487 863.4,613.96 863.36,613.601C863.479,611.562 862.839,610.281 862.399,608.801C860.758,601.882 859.352,594.728 856.639,588.88C856.497,587.903 856.178,587.102 855.679,586.481C854.91,584.37 854.189,582.211 853.519,580.001C853.418,578.503 852.902,577.418 852.08,576.64C852,576.081 851.834,575.607 851.36,575.441C849.861,572.861 848.567,570.072 847.28,567.281C847.095,566.584 846.9,565.899 846.321,565.601C846.192,565.408 846.069,565.211 846.08,564.88C845.848,563.69 846.719,563.601 846.799,562.721C847.034,562.714 846.986,562.427 847.04,562.24C849.197,559.197 851.539,556.34 853.519,553.12C854.217,552.619 854.472,551.673 854.96,550.961C857.517,546.878 860.5,543.221 862.88,538.961C863.46,538.661 863.656,537.976 863.839,537.281C867.923,527.685 871.451,517.532 872.96,505.361C873.506,505.028 873.049,503.69 873.2,502.961L873.2,502.001C873.741,501.822 873.293,500.655 873.439,500.081C873.848,498.068 873.827,493.137 873.439,491.921L873.2,491.921C872.943,480.337 868.774,472.667 865.28,464.321C865.095,463.624 864.9,462.94 864.321,462.641C862.012,459.269 859.901,455.7 857.599,452.321C857.224,451.576 856.933,450.747 856.16,450.401C853.899,447.862 851.942,445.019 849.919,442.241C848.731,440.549 847.266,439.134 845.839,437.681C845.591,437.049 844.887,436.873 844.639,436.241C844.117,435.404 843.562,434.6 842.719,434.081C842.557,433.523 841.921,433.438 841.76,432.881C841.074,432.127 840.625,431.135 839.599,430.721C839.493,430.507 839.389,430.291 839.12,430.241C838.809,429.271 837.8,429 837.2,428.321C835.545,427.334 834.327,425.915 832.639,424.961C832.251,424.23 831.421,423.939 830.719,423.521C830.154,423.047 829.47,422.69 828.799,422.321C828.227,421.453 827.31,420.93 826.399,420.401C823.425,418.174 819.883,416.517 816.799,414.401C816.341,413.82 815.736,413.384 814.88,413.201C814.096,412.464 812.978,412.062 812,411.521C811.7,410.94 811.015,410.745 810.32,410.561C797.431,404.569 783.145,399.976 766.399,397.841C765.112,391.529 763.068,385.972 760.88,380.561C760.693,379.787 760.377,379.143 759.919,378.641C759.072,376.688 757.904,375.057 757.04,373.121C756.856,372.264 756.42,371.66 755.839,371.201C754.768,369.393 753.49,367.79 752.479,365.921C751.951,365.01 751.428,364.093 750.559,363.521C750.474,363.206 750.137,363.144 750.08,362.801C749.556,361.964 749.001,361.16 748.16,360.641C748.204,360.437 748.066,360.415 747.919,360.401C746.315,357.766 743.987,355.853 741.679,353.921C737.912,350.969 734.113,348.047 730.16,345.281C729.767,344.633 729.221,344.139 728.479,343.841C725.2,341.281 721.578,339.062 717.919,336.881C717.553,336.207 716.715,336.005 716,335.681C713.318,333.722 710.065,332.335 707.12,330.641C706.82,330.061 706.135,329.865 705.439,329.681C705.247,329.554 705.049,329.431 704.719,329.441C704.419,328.86 703.736,328.665 703.04,328.481C692.019,324.142 681.431,319.369 667.28,318.161C667.32,317.641 666.428,318.052 666.08,317.921C665.115,317.365 663.123,317.837 661.76,317.681L661.519,317.681L661.519,317.441L873.919,317.441L873.919,963.281L251.359,963.281L251.359,317.441L655.04,317.441L655.04,317.681C653.596,317.838 651.524,317.365 650.479,317.921C627.447,318.889 610.228,325.669 593.599,333.041C592.708,333.349 591.92,333.762 591.199,334.241C591.193,334.474 590.906,334.427 590.719,334.481C590.112,334.753 589.358,334.88 589.04,335.441C588.24,335.521 587.975,336.136 586.88,335.921C580.392,333.528 573.752,331.289 566,330.161C565.668,329.614 564.329,330.071 563.599,329.921L562.399,329.921C562.221,329.379 561.053,329.827 560.48,329.681C559.753,329.127 558.005,329.596 556.88,329.441L553.04,329.441C552.152,329.594 550.649,329.13 550.159,329.681C549.585,329.827 548.418,329.379 548.239,329.921C538.525,330.446 529.864,332.025 522.08,334.481C521.481,334.923 520.168,334.649 519.919,335.441C516.659,336.98 512.96,338.081 510.08,340.001C509.006,339.967 508.583,340.584 507.919,340.961C507.88,341.242 507.482,341.164 507.199,341.201C506.419,341.46 505.736,341.818 505.279,342.401C503.703,342.509 502.168,343.924 501.679,344.321C501.753,344.874 500.986,344.587 500.96,345.041C501.003,345.245 500.866,345.267 500.719,345.281C499.814,345.575 499.059,346.02 498.56,346.721C498.058,346.619 497.924,346.885 497.599,346.961C495.867,347.468 494.904,348.746 493.279,349.361C491.348,350.549 488.999,351.32 487.759,353.201L487.279,353.201C486.905,353.866 485.808,353.81 485.599,354.641L485.359,354.641C483.714,355.716 482.102,356.824 480.799,358.241C479.981,359.022 479.048,359.689 478.159,360.401C476.726,361.767 474.897,362.738 474.08,364.721C473.598,364.639 473.329,364.77 473.359,365.201C472.447,365.889 471.721,366.761 471.199,367.841C470.652,368.253 470.435,368.996 469.759,369.281C468.999,369.721 468.481,370.403 468.08,371.201L467.839,371.201C467.38,371.862 466.418,372.019 466.399,373.121C465.757,373.599 465.309,374.27 464.96,375.041C465.003,375.245 464.866,375.267 464.719,375.281C463.798,375.879 463.393,376.995 462.799,377.921C462.838,378.2 462.747,378.348 462.56,378.401C461.624,378.906 459.799,378.521 458.48,378.641C457.671,378.793 456.25,378.332 455.839,378.881C438.017,380.017 422.133,383.095 408.08,388.001C406.962,388.243 405.8,388.442 404.96,388.961C404.923,389.405 404.147,389.108 404,389.441C402.89,389.612 401.924,389.925 401.119,390.401C400.302,390.864 399.341,391.183 398.48,391.601C397.612,391.694 396.878,391.918 396.319,392.321C395.785,392.906 394.617,392.858 393.919,393.281C392.933,393.574 392.187,394.108 391.279,394.481C390.122,394.603 389.905,395.666 388.639,395.681C387.923,396.005 387.085,396.207 386.719,396.881C385.625,396.746 385.704,397.786 384.56,397.601C383.406,398.047 382.525,398.767 381.439,399.281C380.476,400.237 378.929,400.611 377.599,401.201C376.251,402.012 374.455,402.376 373.52,403.601C373.46,403.862 373.042,403.764 373.04,404.081C373.004,404.525 372.227,404.228 372.08,404.561C371.06,404.822 370.282,405.323 369.679,406.001C368.94,405.821 369.387,406.829 368.48,406.481C366.43,407.551 364.388,408.629 362.96,410.321C361.637,410.838 360.452,411.493 359.6,412.481C359.449,412.89 358.875,412.876 358.639,413.201C357.388,413.87 356.323,414.724 355.279,415.601C353.788,416.669 352.034,417.474 350.719,418.721C349.677,419.599 348.465,420.307 347.6,421.361C347.644,421.565 347.507,421.587 347.359,421.601C345.772,422.493 344.404,423.605 343.279,424.961C342.593,425.474 341.966,426.048 341.359,426.641C339.84,427.362 338.918,428.68 337.759,429.761C337.121,429.843 337.212,430.652 336.56,430.721C334.885,432.166 333.377,433.778 332,435.521C331.739,435.58 331.836,435.998 331.52,436.001C331.03,435.451 329.666,437.329 329.839,437.441C329.86,437.782 329.879,438.121 329.6,438.161C328.502,438.183 328.593,439.394 327.919,439.841C328.009,440.249 327.732,440.293 327.439,440.321C326.846,440.607 326.502,441.143 326.239,441.761C326.007,441.768 326.053,442.055 326,442.241C324.835,442.997 324.171,444.253 323.359,445.361C322.629,445.27 322.952,446.233 322.399,446.321C321.764,446.885 321.293,447.615 320.96,448.481C320.634,448.716 320.649,449.29 320.239,449.441C319.498,450.22 318.866,451.107 318.319,452.081C317.578,453.259 316.447,454.048 315.919,455.441C315.663,456.304 314.811,456.572 314.719,457.601C314.764,457.805 314.626,457.827 314.48,457.841C313.062,459.383 311.957,461.237 311.119,463.361C311.017,463.738 310.364,463.566 310.639,464.321C309.839,465.281 308.976,466.177 308.719,467.681C308.525,467.727 308.48,467.922 308.239,467.921C307.517,468.401 306.762,470.92 306.08,472.241C305.568,473.01 305.484,474.206 304.879,474.881C304.319,475.281 304.263,476.185 303.919,476.801C303.575,477.097 303.465,477.626 303.439,478.241C302.509,479.229 302.161,480.803 301.52,482.081C301.49,483.171 300.96,483.761 300.56,484.481C300.142,485.502 299.738,486.538 299.359,487.601C295.613,497.775 292.844,508.925 291.919,521.921C291.367,522.489 291.834,524.075 291.679,525.041L291.679,525.761C291.13,526.172 291.591,527.592 291.439,528.401L291.439,529.601C291.041,530.25 291.041,532.551 291.439,533.201C291.593,534.167 291.127,535.753 291.679,536.321L291.679,537.281C291.833,538.168 291.369,539.672 291.919,540.161C292.409,547.672 294.484,553.596 295.279,560.801L295.279,561.761L294.799,561.761C293.386,562.507 292.125,563.406 290.96,564.401L290.719,564.401C285.19,567.192 280.884,571.206 275.359,574.001C275.074,574.634 276.514,574.62 275.359,574.721C276.874,574.852 278.564,572.812 280.399,571.601C282.342,570.318 284.588,569.168 286.159,568.481C286.089,568.97 285.51,568.952 285.439,569.441C283.014,571.495 280.255,573.216 278,575.441C276.954,576.475 275.804,577.406 274.879,578.561C274.645,578.807 274.405,579.046 274.159,579.281C273.287,579.848 272.566,580.568 272,581.441C271.041,582.643 269.926,583.687 268.879,584.801C267.902,585.983 266.728,586.97 266,588.401C265.873,588.594 265.749,588.79 265.759,589.12C264.995,589.636 264.325,590.247 264.08,591.281C263.572,591.573 263.406,592.207 263.119,592.721C262.151,593.433 261.629,594.591 261.199,595.841C255.642,604.842 252.619,616.38 251.839,630.161C251.44,631.924 251.44,635.358 251.839,637.12L251.839,637.841C251.809,639.151 251.84,640.401 252.319,641.201C251.992,643.368 253.133,644.067 253.04,646C253.055,647.105 253.369,647.912 253.759,648.641C254.404,651.836 255.727,654.353 256.639,657.281C256.83,658.21 257.167,658.994 257.839,659.441C259.224,662.377 260.507,665.413 262.399,667.841C262.872,669.208 263.437,670.484 264.56,671.201C264.661,671.739 265.074,671.966 265.279,672.401C265.797,673.404 266.07,674.649 267.199,675.04L267.199,675.281C268.043,676.517 268.942,677.699 270.08,678.641C270.404,678.875 270.39,679.45 270.799,679.601C270.905,680.295 271.305,680.695 272,680.801C272.332,681.188 272.679,681.561 272.96,682C273.418,682.662 273.853,683.348 274.639,683.681C275.007,684.353 275.593,684.807 276.08,685.361C276.847,686.274 277.562,687.238 278.719,687.761C279.024,688.576 279.585,689.136 280.399,689.441L280.399,689.681C281.599,690.482 282.401,691.679 283.759,692.321C284.079,693.202 285.227,693.253 285.679,694C286.639,694.961 287.801,695.719 289.04,696.401L289.279,696.401C289.688,697.351 290.681,697.719 291.679,698.081C296.842,701.798 302.837,704.683 308.96,707.441C309.739,707.942 310.7,708.26 311.6,708.641L312.08,708.641C312.52,709.401 313.75,709.37 314.719,709.601C315.396,710.684 317.575,710.264 318.56,711.04C319.139,711.582 320.292,711.548 321.199,711.761C326.194,713.886 332.422,714.779 338.239,716.081C336.938,716.271 340.265,717.394 340.639,717.521C344.32,718.763 351.185,718.578 355.52,719.201C355.844,718.805 349.831,718.147 352.879,718C356.171,717.668 358.051,718.749 361.279,718.481C361.926,719.034 363.594,718.566 364.639,718.721L365.6,718.721C366.803,719.278 369.037,718.803 370.639,718.96L378.56,718.96C380.481,718.802 383.037,719.279 384.56,718.721L385.52,718.721C386.644,718.566 388.393,719.035 389.119,718.481L390.08,718.481C390.966,718.328 392.47,718.791 392.96,718.24L393.919,718.24C396.269,717.731 396.742,719.099 398,719.681C399.32,720.04 399.512,721.529 400.639,722.081C401.048,722.552 401.2,723.281 401.839,723.521C402.32,724.24 402.741,725.019 403.52,725.441C404.11,726.13 404.373,727.147 405.199,727.601C405.68,728.321 406.101,729.1 406.879,729.521C411.341,735.378 416.341,740.699 420.799,746.561C421.28,747.281 421.702,748.06 422.48,748.481C428.486,755.833 434.651,763.03 440.719,770.321C442.017,772.065 443.51,773.61 445.04,775.12C445.462,775.337 445.783,775.658 446,776.081C447.288,777.353 448.23,778.97 449.599,780.161C450.442,780.918 450.989,781.971 451.759,782.801C452.401,783.599 452.745,784.696 453.679,785.201C455.077,787.003 456.689,788.591 458,790.481C458.522,791.317 459.078,792.123 459.919,792.641C460.51,793.331 460.773,794.347 461.599,794.801C462.08,795.521 462.501,796.299 463.279,796.721C463.654,797.466 463.945,798.293 464.719,798.641C469.309,804.772 473.268,811.533 476.96,818.561C477.143,819.257 477.339,819.941 477.919,820.24C480.762,827.158 484.605,833.076 487.04,840.401C487.033,841.207 487.37,841.67 487.759,842.081C488.875,845.206 489.965,848.355 491.119,851.441C491.124,852.397 491.349,853.13 491.839,853.601C492.041,854.12 492.461,854.418 492.319,855.281C492.531,855.95 492.619,856.742 493.04,857.201C495.515,864.645 496.463,873.618 497.359,882.641L497.359,893.92C496.806,894.568 497.274,896.236 497.12,897.281C497.173,898.534 497.115,899.677 496.879,900.641C496.332,900.973 496.79,902.311 496.639,903.04C496.084,904.005 496.556,905.998 496.399,907.361C496.318,908.56 496.288,909.809 495.919,910.721C495.631,909.171 495.622,913.437 495.439,914.321C495.051,917.772 493.919,920.48 493.759,924.161C492.851,925.34 492.871,927.593 494,928.481C495.516,931.284 497.182,933.938 499.04,936.401C499.28,936.72 499.266,937.293 499.759,937.361C499.917,938.003 500.447,938.274 500.719,938.801L500.719,939.04C502.059,940.582 503.499,942.021 505.04,943.361L505.279,943.361C506.406,944.154 507.291,945.189 508.639,945.761C508.994,946.366 509.567,946.752 510.319,946.96C511.088,947.792 512.162,948.319 513.199,948.881C513.389,949.412 514.039,949.482 514.399,949.841C515.256,950.745 516.421,951.338 517.52,952C518.912,952.449 519.875,953.326 521.119,953.92C522.041,954.919 523.567,955.312 524.96,955.841C525.974,956.106 526.928,956.432 527.839,956.801C530.647,957.753 532.977,959.183 536.719,959.201C542.231,960.889 548.001,962.319 554.96,962.561C555.216,963.106 556.468,962.652 557.119,962.801C559.92,963.36 563.759,962.881 566.96,963.04L578.48,963.04C579.524,962.886 581.192,963.354 581.839,962.801C583.442,962.643 585.676,963.118 586.88,962.561C609.748,960.628 629.075,955.157 644.719,946C645.49,945.811 645.768,945.129 646.399,944.801C647.864,943.865 649.124,942.725 650,941.201C650.353,940.594 650.847,940.128 650.96,939.281C649.013,928.586 646.01,918.95 644.96,907.361C645.147,906.293 644.64,905.92 644.719,904.96C644.565,903.915 645.034,902.248 644.479,901.601L644.479,899.441C644.553,898.775 644.441,895.937 644.24,897.761C643.532,897.269 644.467,895.133 643.76,894.641C643.611,893.99 644.064,892.736 643.519,892.481C643.618,891.903 643.082,891.959 643.28,891.281L643.28,879.04C643.113,877.514 643.686,876.726 643.519,875.201C643.465,873.947 643.524,872.804 643.76,871.841C644.296,871.738 643.857,870.658 644,870.161C644.555,869.117 644.083,867.043 644.24,865.601L644.24,864.401C644.622,862.703 644.713,860.715 644.719,858.641C645.264,858.385 644.811,857.132 644.96,856.481C645.366,855.127 645.46,853.46 645.439,851.681C645.976,851.578 645.537,850.499 645.679,850C646.323,842.884 647.888,836.69 649.76,830.801C650.101,830.183 650.535,829.656 650.479,828.641C650.71,828.151 650.969,827.691 651.2,827.201C651.626,826.748 651.991,826.232 651.919,825.281C652.691,823.732 653.341,822.062 654.08,820.481C654.538,819.979 654.853,819.334 655.04,818.561C655.893,816.135 657.184,814.146 658.16,811.841C658.587,811.388 658.951,810.872 658.88,809.92C660.727,806.249 662.38,802.381 664.399,798.881C665.101,798.541 665.161,797.562 665.599,796.96C665.999,796.48 666.47,796.072 666.559,795.281C667.413,793.575 668.342,791.944 669.439,790.481C670.104,789.865 670.433,788.915 670.88,788.081C672.054,786.056 673.204,784.004 674.479,782.081C675.065,781.466 675.573,780.774 675.919,779.92C682.847,768.929 689.957,758.118 698.24,748.481C699.147,748.189 699.46,747.302 699.919,746.561C701.135,745.296 702.181,743.863 703.519,742.721C704.277,742.118 704.96,741.441 705.439,740.561" style="fill:white;"/>
            <path d="M715.76,729.28C714.371,731.092 712.871,732.792 711.2,734.32C712.152,732.632 713.901,731.741 714.8,730C715.146,729.866 715.386,729.626 715.52,729.28L715.76,729.28Z" style="fill:rgb(187,205,167);"/>
            <path d="M722.72,721.601C722.148,722.549 721.465,723.386 720.56,724C721.249,723.17 721.815,722.215 722.72,721.601" style="fill:rgb(187,205,167);"/>
            <path d="M727.28,716.801C726.262,718.583 724.584,719.704 723.2,721.12C723.273,720.555 724.033,720.674 723.92,719.92C725.23,719.071 726.094,717.776 727.28,716.801" style="fill:rgb(227,234,218);"/>
            <path d="M728.96,715.12C729.537,714.017 730.57,713.37 731.359,712.48C730.893,713.693 729.826,714.307 728.96,715.12" style="fill:rgb(227,234,218);"/>
            <path d="M829.28,700.481C828.954,701.196 828.196,701.476 827.599,701.919C827.799,701.08 828.556,700.797 829.28,700.481" style="fill:rgb(187,205,167);"/>
            <path d="M837.92,693.28C837.335,693.975 836.695,694.615 836,695.2C836.241,694.314 837.364,693.054 837.92,693.28" style="fill:rgb(147,176,114);"/>
            <path d="M845.359,684.16C844.957,685.358 844.316,686.316 843.439,687.04C843.372,686.653 843.667,686.627 843.679,686.32C844.505,685.866 844.661,684.741 845.359,684.16" style="fill:rgb(227,234,218);"/>
            <path d="M846.08,682.96C846.746,682.187 847.492,681.493 847.76,680.32L848.24,680.32C847.552,681.313 847.167,682.607 846.08,683.2L846.08,682.96Z" style="fill:rgb(227,234,218);"/>
            <path d="M741.68,353.92C743.988,355.852 746.316,357.765 747.92,360.4C747.716,360.444 747.694,360.306 747.68,360.16C747.266,359.374 746.414,359.026 746,358.24C744.787,356.653 743.168,355.471 741.68,354.16L741.68,353.92Z" style="fill:rgb(227,234,218);"/>
            <path d="M716,335.681C716.716,336.005 717.554,336.207 717.92,336.881C717.178,336.583 716.432,336.289 716,335.681" style="fill:rgb(147,176,114);"/>
            <path d="M730.16,345.28C729.418,344.982 728.872,344.488 728.479,343.84C729.222,344.138 729.767,344.633 730.16,345.28" style="fill:rgb(113,151,70);"/>
            <path d="M741.68,354.16C743.168,355.472 744.787,356.653 746,358.24C745.685,358.156 745.622,357.818 745.281,357.76C744.315,356.326 742.626,355.614 741.68,354.16" style="fill:rgb(147,176,114);"/>
            <path d="M745.28,357.76C745.622,357.818 745.684,358.156 746,358.24C746.414,359.027 747.265,359.374 747.679,360.16C746.779,359.461 745.979,358.661 745.28,357.76" style="fill:rgb(113,151,70);"/>
            <path d="M750.08,362.8C749.307,362.213 748.563,361.597 748.16,360.64C749.001,361.159 749.557,361.963 750.08,362.8" style="fill:rgb(113,151,70);"/>
            <path d="M755.84,371.2C756.421,371.659 756.857,372.263 757.04,373.12C756.432,372.688 756.138,371.942 755.84,371.2" style="fill:rgb(147,176,114);"/>
            <path d="M814.88,413.2C815.736,413.384 816.341,413.819 816.8,414.4C816.058,414.102 815.312,413.808 814.88,413.2" style="fill:rgb(147,176,114);"/>
            <path d="M826.399,420.4C827.31,420.929 828.227,421.452 828.799,422.32C827.888,421.791 826.971,421.268 826.399,420.4" style="fill:rgb(147,176,114);"/>
            <path d="M830.72,423.52C831.422,423.938 832.251,424.229 832.64,424.96C831.938,424.542 831.109,424.251 830.72,423.52" style="fill:rgb(147,176,114);"/>
            <path d="M839.12,430.24C838.379,429.701 837.739,429.061 837.2,428.32C837.801,429 838.809,429.27 839.12,430.24" style="fill:rgb(147,176,114);"/>
            <path d="M839.6,430.721C840.625,431.135 841.075,432.127 841.76,432.881C840.871,432.329 840.325,431.436 839.6,430.721" style="fill:rgb(147,176,114);"/>
            <path d="M842.72,434.081C843.562,434.6 844.117,435.404 844.64,436.241C843.799,435.722 843.243,434.918 842.72,434.081" style="fill:rgb(147,176,114);"/>
            <path d="M849.92,442.24C848.353,440.928 847.116,439.283 845.84,437.68C847.267,439.133 848.732,440.549 849.92,442.24" style="fill:rgb(147,176,114);"/>
            <path d="M693.92,673.601C678.78,678.301 663.198,682.559 644.48,683.681C643.75,683.831 642.412,683.373 642.08,683.92L637.04,683.92C636.64,687.841 636.64,693.44 637.04,697.361C636.932,701.309 637.695,704.385 638.24,707.681C638.388,709.133 638.539,710.581 639.2,711.521C639.993,717.207 641.287,722.393 643.04,727.121C643.701,728.379 644.661,729.34 645.92,730C652.282,728.363 658.531,726.612 662.48,722.561C661.945,723.544 663.959,721.924 664.16,721.361C678.76,711.561 692.08,700.481 705.44,689.441C704.82,688.621 704.101,687.9 703.28,687.281C702.982,686.779 702.582,686.378 702.08,686.08C702.023,685.739 701.685,685.676 701.6,685.361C701.351,684.49 700.85,683.871 700.16,683.441C698.877,681.284 697.439,679.283 696.32,676.96C696.136,676.264 695.941,675.58 695.359,675.281C695.173,675.228 695.081,675.08 695.12,674.801C695.527,674.685 694.561,672.667 693.92,673.601M508.88,662.08C508.934,661.627 508.609,661.551 508.64,661.121C508.045,661.085 507.475,661.077 507.44,661.601C506.481,661.601 506,662.08 505.04,662.08C503.963,662.285 502.8,662.402 502.16,663.04C499.853,663.534 497.601,664.082 495.2,664.481C494.215,664.455 493.241,664.442 492.8,664.96C490.139,665.339 487.374,665.615 484.64,665.92L482,665.92C481.113,666.074 479.609,665.61 479.12,666.161L471.44,666.161C470.396,665.605 468.323,666.078 466.88,665.92L463.76,665.92C461.085,666.036 459.059,665.501 457.04,664.96C456.039,664.132 455.289,665.6 455.12,666.401C455.003,666.684 454.864,666.945 454.64,667.121C452.463,669.904 450.577,672.978 448.64,676C448.299,676.78 447.531,677.132 447.44,678.161L447.2,678.161C446.324,678.725 445.837,679.677 445.28,680.561C444.883,681.365 444.199,681.88 443.84,682.721C443.586,683.426 443.03,683.831 442.64,684.401C441.937,684.187 440.362,686.434 440.48,687.04C439.314,687.69 438.064,689.666 439.52,690.881C439.598,691.47 440.93,693.457 440.48,692.321C441.87,694.611 443.487,696.674 445.04,698.801C445.223,699.331 446.707,701.33 446.24,700.241C446.939,700.902 447.393,701.808 447.92,702.641C448.078,703.523 448.805,703.836 449.36,704.321C449.595,705.205 450.411,705.51 450.8,706.241C451.026,706.834 452.628,709.008 452.24,707.92C452.923,708.358 453.077,709.324 453.68,709.841C454.442,711.239 455.433,712.409 456.56,713.441C457.728,714.833 458.864,716.256 460.16,717.521C460.781,718.259 461.204,719.197 462.08,719.681C462.501,720.06 462.578,720.783 463.28,720.881L463.28,721.121C464.026,722.535 465.266,723.455 466.4,724.481C466.414,724.627 466.436,724.765 466.64,724.721C467.5,725.782 468.46,726.742 469.52,727.601C470.181,728.06 470.779,728.581 471.44,729.04C476.148,733.453 481.798,736.922 486.8,741.04C487.192,741.689 487.738,742.183 488.48,742.481C493.847,746.154 498.816,750.225 505.04,753.04C505.339,753.622 506.024,753.817 506.72,754C509.057,755.732 512.581,754.298 515.36,753.761C516.446,749.727 518.615,746.776 518.72,741.761C519.269,741.35 518.808,739.929 518.96,739.121L518.96,737.441C519.511,736.952 519.047,735.448 519.2,734.561L519.2,733.121C519.741,732.942 519.294,731.775 519.44,731.201C519.989,730.79 519.528,729.369 519.68,728.561L519.68,726.641C520.231,726.152 519.767,724.648 519.92,723.761C519.763,722.238 520.236,720.084 519.68,718.96C518.415,697.666 513.778,679.744 508.88,662.08M852.08,532.241C852.223,532.738 851.783,533.817 852.32,533.921C852.643,533.443 852.777,532.778 853.04,532.241L852.08,532.241ZM824.48,443.201C823.739,442.384 824.294,445.312 825.68,444.641C825.847,443.833 825.187,443.854 824.96,443.441C824.719,443.442 824.674,443.247 824.48,443.201M849.92,442.241C851.942,445.018 853.899,447.862 856.16,450.401C856.538,451.143 856.987,451.814 857.6,452.321C859.901,455.7 862.013,459.268 864.32,462.641C864.504,463.337 864.699,464.021 865.28,464.321C868.774,472.667 872.943,480.337 873.2,491.921L873.2,502.961C872.652,503.293 873.11,504.631 872.96,505.361C871.451,517.532 867.924,527.684 863.84,537.281C863.26,537.58 863.064,538.265 862.88,538.961C860.5,543.221 857.518,546.878 854.96,550.961C854.246,551.447 853.764,552.165 853.52,553.121C851.539,556.34 849.196,559.197 847.04,562.241C846.449,562.698 845.018,563.568 845.84,564.641C845.796,564.845 845.934,564.867 846.08,564.881C846.069,565.211 846.192,565.408 846.32,565.601C846.504,566.297 846.699,566.981 847.28,567.281C848.567,570.073 849.86,572.861 851.359,575.441C851.864,576.696 852.258,578.063 853.04,579.041C852.973,579.588 853.098,579.943 853.52,580.001C854.19,582.211 854.91,584.371 855.68,586.481C855.866,587.414 855.955,588.446 856.64,588.881C859.353,594.728 860.759,601.882 862.399,608.801C862.396,610.004 862.585,611.016 862.88,611.92C863.02,613.942 863.311,615.81 863.6,617.681L863.6,618.401C863.755,619.446 863.287,621.114 863.84,621.761L863.84,637.121C863.617,639.345 863.399,642.664 863.12,645.521L863.12,645.761C862.738,647.299 862.422,648.903 862.16,650.561C862.33,651.451 861.75,651.591 861.92,652.481C860.795,656.636 858.894,660.015 857.6,664C856.987,664.429 856.618,665.099 856.64,666.161C855.568,669.089 853.566,671.086 852.32,673.841C851.325,674.446 850.63,675.351 850.399,676.721C850.283,677.004 850.144,677.265 849.92,677.441C849.216,678.336 848.187,678.908 848,680.321L847.76,680.321C847.143,681.144 846.454,681.895 846.08,682.96C844.986,683.787 844.309,685.029 843.68,686.321C843.667,686.627 843.372,686.654 843.44,687.04C842.994,687.555 842.4,687.922 842,688.481C840.914,688.995 840.518,690.199 839.84,691.121C839.057,691.698 838.815,692.816 837.92,693.281C837.364,693.055 836.241,694.315 836,695.201L835.76,695.201C835.198,695.919 834.228,696.228 833.6,696.881C833.672,697.353 833.275,697.357 833.12,697.601C832.264,697.785 831.859,698.42 831.44,699.04C830.932,699.733 829.782,699.784 829.28,700.481C828.557,700.797 827.799,701.08 827.6,701.92C824.397,704.398 820.247,705.928 817.04,708.401C815.956,708.597 815.178,709.098 814.64,709.841C814.587,710.028 814.439,710.12 814.16,710.08C813.979,709.761 812.61,710.276 812.48,710.801C805.277,714.318 796.002,715.763 786.56,717.04L772.64,717.04C772.23,716.492 770.808,716.953 770,716.801C759.114,716.177 747.736,713.469 738.32,710.561C735.22,709.603 733.235,708.431 732.08,711.281C729.22,714.02 726.691,717.091 723.92,719.92C724.033,720.674 723.274,720.555 723.2,721.121C723.197,721.438 722.779,721.34 722.72,721.601C721.815,722.215 721.249,723.17 720.56,724C719.237,725.159 717.972,726.372 716.96,727.841C716.14,728.46 715.419,729.18 714.8,730C713.9,731.742 712.151,732.632 711.2,734.321C710.382,734.783 709.942,735.622 709.28,736.241C707.646,737.727 706.233,739.434 704.72,741.04C704.441,741.722 703.76,742 703.52,742.721C702.182,743.863 701.136,745.296 699.92,746.561C699.212,747.053 698.587,747.627 698.24,748.481C689.956,758.118 682.848,768.929 675.92,779.92C675.23,780.431 674.569,780.97 674.48,782.08C673.204,784.004 672.055,786.056 670.88,788.08C670.281,788.762 669.487,789.247 669.44,790.481C668.343,791.944 667.413,793.575 666.56,795.281C665.985,795.586 665.583,796.064 665.6,796.96C665.019,797.419 664.583,798.024 664.399,798.881C662.38,802.381 660.728,806.248 658.88,809.92C658.407,810.328 658.236,811.037 658.16,811.841C657.185,814.146 655.894,816.135 655.04,818.561C654.457,818.938 654.141,819.581 654.08,820.481C653.342,822.063 652.691,823.732 651.92,825.281C651.594,825.835 651.23,826.351 651.2,827.201C650.97,827.691 650.71,828.151 650.48,828.641C649.989,829.111 649.764,829.845 649.76,830.801C647.889,836.69 646.323,842.884 645.68,850C645.191,850.233 645.161,850.922 645.2,851.681C645.485,853.726 644.487,854.488 644.72,856.481C644.71,857.271 644.315,857.675 644.48,858.641C644.638,860.319 644.266,861.466 644.24,862.96C643.691,863.372 644.151,864.792 644,865.601L644,866.321C643.452,866.654 643.91,867.992 643.76,868.721L643.76,871.841C643.524,872.805 643.466,873.947 643.52,875.201C642.972,876.092 643.027,877.588 643.04,879.04L643.04,879.761C642.492,880.093 642.95,881.431 642.8,882.161C642.958,884.082 642.482,886.638 643.04,888.161L643.04,888.641C643.191,889.449 642.731,890.871 643.28,891.281C643.081,891.959 643.618,891.903 643.52,892.481C643.678,894.243 643.202,896.638 643.76,898L643.76,899.681C643.727,900.914 643.795,902.045 644.24,902.801C644.22,903.141 644.2,903.481 644.48,903.521L644.48,904.96C644.446,905.955 644.546,906.815 644.96,907.361C646.011,918.95 649.014,928.586 650.96,939.281C650.259,939.621 650.198,940.599 649.76,941.201C648.078,942.799 646.318,944.319 644.72,946C629.075,955.157 609.748,960.628 586.88,962.561C585.118,962.719 582.723,962.244 581.36,962.801L569.6,962.801C569.186,962.403 567.134,962.403 566.72,962.801L565.04,962.801C563.518,962.244 560.962,962.719 559.04,962.561L554.96,962.561C548.002,962.319 542.231,960.89 536.72,959.201C536.667,959.014 536.519,958.922 536.24,958.96C532.528,957.312 528.094,956.386 524.48,954.641L524.24,954.641C523.203,953.838 521.811,953.39 520.64,952.721C519.531,951.99 518.291,951.39 517.04,950.801C510.978,946.063 504.113,942.127 499.04,936.401C497.183,933.938 495.516,931.285 494,928.481C493.727,926.741 493.489,926.112 493.76,924.161C493.92,920.48 495.051,917.772 495.44,914.321C495.878,913.399 495.951,912.112 495.92,910.721C496.288,909.809 496.319,908.56 496.4,907.361C496.93,907.33 496.502,906.342 496.64,905.92C497.197,904.638 496.722,902.323 496.88,900.641C497.116,899.677 497.174,898.535 497.12,897.281C497.667,896.948 497.21,895.611 497.36,894.881C497.918,893.119 497.441,890.323 497.6,888.161L497.6,885.761C497.446,884.795 497.912,883.208 497.36,882.641C496.463,873.618 495.516,864.645 493.04,857.201C493.105,856.256 492.947,855.534 492.32,855.281C492.462,854.419 492.041,854.12 491.84,853.601C491.688,852.793 491.67,851.851 491.12,851.441C489.966,848.355 488.875,845.205 487.76,842.08C487.675,841.366 487.621,840.62 487.04,840.401C484.605,833.076 480.763,827.158 477.92,820.241C477.736,819.544 477.54,818.861 476.96,818.561C473.268,811.533 469.309,804.772 464.72,798.641C464.341,797.9 463.893,797.228 463.28,796.721C462.933,795.868 462.308,795.293 461.6,794.801C460.774,794.347 460.511,793.33 459.92,792.641C459.517,791.684 458.773,791.068 458,790.481C456.69,788.591 455.077,787.003 453.68,785.201C453.169,784.272 452.547,783.454 451.76,782.801C450.989,781.971 450.442,780.918 449.6,780.161C448.539,778.663 447.486,777.155 446,776.08C445.783,775.658 445.463,775.337 445.04,775.121C443.721,773.4 442.228,771.853 440.72,770.321C434.651,763.03 428.487,755.833 422.48,748.481C422.133,747.627 421.508,747.053 420.8,746.561C416.342,740.699 411.342,735.378 406.88,729.521C406.533,728.667 405.908,728.093 405.2,727.601C404.374,727.147 404.11,726.13 403.52,725.441C403.173,724.587 402.548,724.013 401.84,723.521C401.2,723.281 401.048,722.552 400.64,722.08C399.96,721.162 399.191,720.33 398.48,719.441C397.892,718.822 397.077,717.172 395.84,718C395.266,718.147 394.099,717.7 393.92,718.241L392.96,718.241C392.073,718.394 390.569,717.93 390.08,718.481L389.12,718.481C387.995,718.636 386.246,718.167 385.52,718.721L369.44,718.721C368.316,718.164 366.163,718.638 364.64,718.481L361.28,718.481C358.052,718.749 356.172,717.668 352.88,718C352.388,717.293 350.252,718.229 349.76,717.521C349.427,716.974 348.089,717.431 347.36,717.281C344.124,717.078 341.438,716.323 338.24,716.08C332.422,714.779 326.194,713.886 321.2,711.761C320.55,711.29 319.607,711.114 318.56,711.04C317.575,710.265 315.397,710.684 314.72,709.601C314.226,708.895 312.805,709.116 312.08,708.641L311.6,708.641C311.222,707.74 310.066,707.615 308.96,707.441C302.837,704.683 296.843,701.798 291.68,698.08C290.974,697.426 290.066,696.975 289.28,696.401L289.04,696.401C288.099,695.421 287.138,694.462 285.68,694C285.227,693.253 284.079,693.202 283.76,692.321C282.799,691.282 281.941,690.139 280.4,689.681L280.4,689.441C280.067,688.654 279.423,688.178 278.72,687.761C277.97,686.831 277.156,685.965 276.08,685.361C275.594,684.807 275.008,684.353 274.64,683.681C274.251,682.95 273.817,682.264 272.96,682C272.68,681.561 272.333,681.188 272,680.801L272,680.561C271.64,680.201 271.278,679.843 270.8,679.601C270.391,679.45 270.405,678.875 270.08,678.641C269.278,677.363 268.365,676.196 267.2,675.281L267.2,675.04C266.351,674.37 266.166,673.036 265.28,672.401C265.075,671.966 264.662,671.739 264.56,671.201C263.788,670.133 263.188,668.893 262.4,667.841C260.507,665.413 259.223,662.377 257.84,659.441C257.4,658.761 257.515,657.526 256.64,657.281C255.728,654.353 254.404,651.836 253.76,648.641C254.02,648.208 253.437,646.573 253.04,646C253.133,644.067 251.993,643.368 252.32,641.201C252.239,640.002 252.208,638.752 251.84,637.841L251.84,630.161C252.619,616.38 255.642,604.842 261.2,595.841C261.975,594.936 262.494,593.775 263.12,592.721C263.406,592.207 263.573,591.574 264.08,591.281C264.906,590.827 265.169,589.81 265.76,589.121C265.75,588.79 265.873,588.594 266,588.401C266.956,587.197 268.28,586.361 268.88,584.801C269.926,583.687 271.042,582.643 272,581.441C273.098,581.099 273.5,580.061 274.16,579.281C274.405,579.046 274.646,578.807 274.88,578.561C276.025,577.626 277.383,576.904 278,575.441C280.255,573.216 283.015,571.496 285.44,569.441C286.676,568.917 287.266,567.747 288.56,567.281C289.748,566.309 291.333,565.734 292.64,564.881C293.882,564.523 294.645,563.685 295.76,563.201C295.638,562.363 295.652,561.389 295.28,560.801C294.485,553.596 292.408,547.672 291.92,540.161C291.767,539.274 292.231,537.77 291.68,537.281L291.68,527.681C292.229,527.27 291.768,525.849 291.92,525.041L291.92,521.921C292.844,508.925 295.614,497.775 299.36,487.601C300.052,486.853 300.599,485.96 300.56,484.481C300.961,483.761 301.49,483.171 301.52,482.081C302.601,481.242 302.858,479.579 303.44,478.241C303.465,477.626 303.576,477.097 303.92,476.801C304.608,476.53 304.811,475.772 304.88,474.881C305.484,474.205 305.569,473.01 306.08,472.241C306.566,471.847 307.037,471.438 307.04,470.561C307.671,470.232 307.935,469.536 308,468.641C308.279,468.601 308.26,468.262 308.24,467.921C308.481,467.922 308.525,467.726 308.72,467.681C309.571,466.772 309.928,465.369 310.64,464.321C310.365,463.566 311.017,463.738 311.12,463.361C312.337,461.619 313.408,459.729 314.48,457.841C314.627,457.827 314.764,457.805 314.72,457.601C315.161,456.922 315.877,456.518 315.92,455.441C316.447,454.048 317.579,453.259 318.32,452.081C319.162,451.402 319.89,450.611 320.24,449.441C320.649,449.29 320.635,448.716 320.96,448.481C321.774,448.414 321.498,447.259 322.16,447.041C322.83,446.67 322.957,445.757 323.6,445.361C324.424,444.346 325.295,443.376 326,442.241C326.054,442.055 326.006,441.768 326.24,441.761C326.671,441.792 326.802,441.522 326.72,441.041C327.343,441.184 327.584,440.944 327.44,440.321C327.733,440.293 328.008,440.249 327.92,439.841C328.847,439.648 329.071,438.752 329.6,438.161C329.879,438.121 329.86,437.782 329.84,437.441C330.662,437.223 330.834,436.354 331.52,436.001C331.837,435.998 331.739,435.58 332,435.521C333.675,434.077 335.351,432.632 336.56,430.721C337.212,430.652 337.122,429.843 337.76,429.761C339.249,429.01 340.311,427.832 341.36,426.641C341.967,426.048 342.593,425.474 343.28,424.961C344.743,423.944 346.089,422.81 347.36,421.601C347.506,421.587 347.644,421.565 347.6,421.361C348.781,420.622 350.155,420.077 350.72,418.721C352.033,417.474 353.788,416.669 355.28,415.601C356.535,414.935 357.866,414.347 358.64,413.201C358.875,412.876 359.449,412.89 359.6,412.481C360.818,411.859 361.953,411.154 362.96,410.321C363.267,410.308 363.292,410.013 363.68,410.081C365.743,408.543 368.156,407.357 370.16,405.761C370.848,405.409 371.558,405.079 372.08,404.561C372.227,404.228 373.004,404.525 373.04,404.081C374.059,403.82 374.838,403.319 375.44,402.641C376.018,402.018 377.537,402.338 377.6,401.201C378.93,400.611 380.476,400.237 381.44,399.281C382.906,399.147 383.746,398.387 384.56,397.601C385.705,397.786 385.625,396.746 386.72,396.881C387.436,396.557 388.274,396.354 388.64,395.681C389.905,395.666 390.122,394.603 391.28,394.481C391.64,394.667 394.172,393.707 393.92,393.281C394.617,392.858 395.785,392.906 396.32,392.321C397.275,392.317 398.01,392.091 398.48,391.601C399.341,391.183 400.303,390.864 401.12,390.401C402.323,390.324 403.289,390.01 404,389.441C404.147,389.108 404.924,389.405 404.96,388.961C406.248,388.889 407.191,388.472 408.08,388.001C422.134,383.095 438.016,380.017 455.84,378.881L458.48,378.881C459.774,378.654 462.028,379.389 462.56,378.401C462.747,378.348 462.839,378.2 462.8,377.921C463.7,377.301 464.136,376.217 464.72,375.281C464.866,375.267 465.004,375.245 464.96,375.041C465.778,374.659 465.913,373.594 466.64,373.121C466.623,372.064 467.765,372.166 467.84,371.201L468.08,371.201C468.747,370.668 469.48,370.201 469.76,369.281C470.435,368.996 470.652,368.253 471.2,367.841C471.981,367.021 472.83,366.271 473.36,365.201C473.329,364.77 473.598,364.639 474.08,364.721C475.307,363.147 476.988,362.029 478.16,360.401C479.048,359.689 479.982,359.022 480.8,358.241C482.447,357.168 484.022,356.023 485.36,354.641L485.6,354.641C486.183,354.184 487.173,354.134 487.28,353.201L487.76,353.201C489.395,351.715 491.632,350.833 493.28,349.361C495.188,349.029 496.257,347.858 497.6,346.961C497.924,346.885 498.058,346.619 498.56,346.721C499.355,346.316 500.085,345.845 500.72,345.281C500.866,345.267 501.004,345.245 500.96,345.041C502.537,344.618 503.44,343.52 504.8,342.881C504.853,342.694 505.001,342.602 505.28,342.641C505.881,342.122 506.679,341.8 507.2,341.201C507.482,341.163 507.881,341.242 507.92,340.961C508.835,340.836 509.47,340.432 510.08,340.001C512.96,338.081 516.659,336.98 519.92,335.441C520.518,334.999 521.832,335.272 522.08,334.481C529.864,332.025 538.525,330.446 548.24,329.921L551.12,329.921C552.165,329.766 553.833,330.234 554.48,329.681L559.04,329.681C559.687,330.234 561.355,329.766 562.4,329.921L563.6,329.921C563.933,330.468 565.271,330.01 566,330.161C573.753,331.288 580.393,333.528 586.88,335.921C587.408,336.511 588.927,336.061 589.04,335.441C589.756,335.277 590.509,335.15 590.72,334.481C590.906,334.427 591.193,334.474 591.2,334.241C592.411,334.252 592.901,333.542 593.6,333.041C610.229,325.669 627.447,318.889 650.48,317.921L664.88,317.921C665.213,318.468 666.551,318.01 667.28,318.161C681.432,319.369 692.02,324.142 703.04,328.481C703.34,329.061 704.024,329.257 704.72,329.441C705.05,329.431 705.247,329.554 705.44,329.681C705.739,330.261 706.424,330.457 707.12,330.641C710.066,332.335 713.318,333.722 716,335.681C716.432,336.289 717.178,336.583 717.92,336.881C721.578,339.062 725.2,341.281 728.48,343.841C728.872,344.489 729.418,344.983 730.16,345.281C734.113,348.047 737.912,350.969 741.68,353.921L741.68,354.161C742.626,355.615 744.315,356.327 745.28,357.761C745.98,358.662 746.779,359.461 747.68,360.161C747.693,360.307 747.716,360.445 747.92,360.401C748.066,360.414 748.204,360.437 748.16,360.641C748.564,361.598 749.307,362.214 750.08,362.801C750.138,363.143 750.475,363.205 750.56,363.521C751.056,364.465 751.578,365.382 752.48,365.921C753.49,367.79 754.769,369.393 755.84,371.201C756.138,371.943 756.432,372.689 757.04,373.121C757.904,375.057 759.072,376.688 759.92,378.641C759.981,379.54 760.297,380.184 760.88,380.561C763.068,385.972 765.112,391.529 766.399,397.841C783.146,399.976 797.432,404.569 810.32,410.561C810.619,411.141 811.304,411.337 812,411.521C812.979,412.062 814.097,412.464 814.88,413.201C815.312,413.809 816.058,414.103 816.8,414.401C819.884,416.517 823.426,418.174 826.399,420.401C826.972,421.269 827.889,421.792 828.8,422.321C829.471,422.69 830.153,423.047 830.72,423.521C831.108,424.252 831.938,424.543 832.64,424.961C834.326,425.914 835.546,427.334 837.2,428.321C837.739,429.061 838.379,429.702 839.12,430.241C839.39,430.291 839.493,430.507 839.6,430.721C840.324,431.436 840.871,432.33 841.76,432.881C841.922,433.438 842.558,433.523 842.72,434.081C843.243,434.918 843.799,435.722 844.64,436.241C844.888,436.872 845.592,437.049 845.84,437.681C847.116,439.284 848.353,440.929 849.92,442.241" style="fill:rgb(89,133,39);"/>
            <path d="M856.16,450.4C856.933,450.746 857.224,451.575 857.599,452.32C856.987,451.813 856.538,451.142 856.16,450.4" style="fill:rgb(147,176,114);"/>
            <path d="M845.84,564.641C845.018,563.568 846.449,562.698 847.04,562.241C846.986,562.427 847.033,562.714 846.8,562.721C846.171,563.052 845.761,563.602 845.84,564.641" style="fill:rgb(113,151,70);"/>
            <path d="M862.88,611.92C863.568,611.953 862.673,613.568 863.359,613.601C863.401,613.96 863.275,614.486 863.6,614.561L863.6,617.681C863.311,615.81 863.02,613.941 862.88,611.92" style="fill:rgb(113,151,70);"/>
            <path d="M863.84,637.12L863.84,637.6C864.056,638.249 864.419,637.094 864.56,636.881C865.105,637.136 864.652,638.389 864.8,639.04L864.8,639.28C864.409,641.529 863.265,643.025 863.12,645.52C863.399,642.664 863.617,639.345 863.84,637.12" style="fill:rgb(113,151,70);"/>
            <path d="M863.12,645.761C863.192,647.753 862.684,649.165 862.16,650.561C862.422,648.903 862.738,647.299 863.12,645.761" style="fill:rgb(113,151,70);"/>
            <path d="M850.399,676.721C850.629,675.351 851.325,674.446 852.32,673.841C851.637,674.759 851.124,675.845 850.399,676.721" style="fill:rgb(113,151,70);"/>
            <path d="M846.08,682.96C846.454,681.895 847.143,681.144 847.76,680.32C847.492,681.493 846.746,682.187 846.08,682.96" style="fill:rgb(147,176,114);"/>
            <path d="M843.68,686.32C844.309,685.028 844.987,683.786 846.08,682.96L846.08,683.2C845.755,683.435 845.769,684.009 845.36,684.16C844.661,684.741 844.506,685.866 843.68,686.32" style="fill:rgb(113,151,70);"/>
            <path d="M812.48,710.801C812.611,710.276 813.979,709.761 814.161,710.08C813.964,710.685 812.894,710.415 812.48,710.801" style="fill:rgb(113,151,70);"/>
            <path d="M723.92,719.92C726.691,717.091 729.22,714.02 732.08,711.28C731.94,711.779 731.575,712.056 731.359,712.481C730.57,713.37 729.537,714.018 728.96,715.12C728.173,715.453 727.823,716.224 727.28,716.801C726.095,717.775 725.231,719.07 723.92,719.92" style="fill:rgb(113,151,70);"/>
            <path d="M716.96,727.841C717.972,726.372 719.237,725.158 720.56,724C719.525,725.526 718.148,726.709 716.96,728.08L716.96,727.841Z" style="fill:rgb(147,176,114);"/>
            <path d="M714.8,730C715.419,729.18 716.14,728.46 716.96,727.841L716.96,728.08C716.561,728.481 716.161,728.882 715.76,729.28L715.52,729.28C715.386,729.626 715.146,729.866 714.8,730" style="fill:rgb(113,151,70);"/>
            <path d="M704.72,741.04C706.233,739.434 707.646,737.727 709.281,736.24C708.256,737.936 706.741,739.142 705.44,740.561C705.125,740.645 705.063,740.983 704.72,741.04" style="fill:rgb(113,151,70);"/>
            <path d="M703.519,742.721C703.76,742 704.442,741.722 704.72,741.04C705.062,740.984 705.125,740.646 705.439,740.561C704.96,741.441 704.278,742.117 703.519,742.721" style="fill:rgb(187,205,167);"/>
            <path d="M698.24,748.481C698.587,747.626 699.212,747.053 699.92,746.561C699.461,747.302 699.147,748.188 698.24,748.481" style="fill:rgb(187,205,167);"/>
            <path d="M674.48,782.08C674.57,780.97 675.23,780.431 675.92,779.92C675.574,780.773 675.066,781.466 674.48,782.08" style="fill:rgb(113,151,70);"/>
            <path d="M643.76,899.681C644.453,899.787 643.547,901.494 644.24,901.601L644.24,902.801C643.795,902.045 643.727,900.913 643.76,899.681" style="fill:rgb(113,151,70);"/>
            <path d="M649.76,941.2C650.198,940.598 650.259,939.62 650.96,939.28C650.848,940.128 650.354,940.594 650,941.2L649.76,941.2Z" style="fill:rgb(147,176,114);"/>
            <path d="M644.72,946C646.319,944.318 648.078,942.799 649.76,941.2C648.955,942.716 647.433,943.513 646.4,944.801C645.769,945.129 645.491,945.811 644.72,946" style="fill:rgb(113,151,70);"/>
            <path d="M524.24,954.641C523.035,954.326 522.19,953.651 521.12,953.201L520.88,953.201C520.834,953.006 520.639,952.961 520.64,952.721C521.811,953.39 523.203,953.838 524.24,954.641" style="fill:rgb(113,151,70);"/>
            <path d="M517.04,950.801C514.682,949.638 512.776,948.025 510.32,946.96C509.568,946.752 508.995,946.365 508.64,945.761C505.79,942.85 502.39,940.491 499.76,937.361C499.267,937.293 499.281,936.72 499.04,936.401C504.113,942.127 510.978,946.063 517.04,950.801" style="fill:rgb(113,151,70);"/>
            <path d="M495.92,910.721C495.951,912.112 495.878,913.399 495.44,914.321C495.622,913.437 495.632,909.171 495.92,910.721" style="fill:rgb(113,151,70);"/>
            <path d="M464.72,798.641C463.946,798.294 463.655,797.466 463.28,796.721C463.893,797.228 464.342,797.9 464.72,798.641" style="fill:rgb(147,176,114);"/>
            <path d="M458,790.481C458.772,791.067 459.517,791.683 459.92,792.64C459.078,792.123 458.523,791.317 458,790.481" style="fill:rgb(113,151,70);"/>
            <path d="M453.68,785.2C452.745,784.695 452.402,783.598 451.76,782.801C452.547,783.453 453.169,784.271 453.68,785.2" style="fill:rgb(147,176,114);"/>
            <path d="M446,776.08C447.486,777.154 448.539,778.662 449.6,780.16C448.23,778.97 447.288,777.352 446,776.08" style="fill:rgb(113,151,70);"/>
            <path d="M406.88,729.521C406.101,729.1 405.68,728.321 405.2,727.601C405.908,728.093 406.533,728.667 406.88,729.521" style="fill:rgb(147,176,114);"/>
            <path d="M403.52,725.44C402.741,725.019 402.32,724.24 401.84,723.52C402.548,724.012 403.173,724.586 403.52,725.44" style="fill:rgb(147,176,114);"/>
            <path d="M400.64,722.08C399.513,721.528 399.321,720.04 398,719.681C397.406,719.315 396.987,718.774 396.8,718C397.646,718.194 397.415,719.465 398.48,719.44C399.191,720.33 399.96,721.161 400.64,722.08" style="fill:rgb(147,176,114);"/>
            <path d="M395.84,718C397.077,717.172 397.892,718.821 398.48,719.44C397.415,719.465 397.646,718.194 396.8,718L395.84,718Z" style="fill:rgb(113,151,70);"/>
            <path d="M318.56,711.04C319.607,711.113 320.55,711.29 321.2,711.761C320.292,711.548 319.139,711.581 318.56,711.04" style="fill:rgb(147,176,114);"/>
            <path d="M312.08,708.641C312.805,709.116 314.226,708.895 314.72,709.601C313.75,709.37 312.52,709.401 312.08,708.641" style="fill:rgb(147,176,114);"/>
            <path d="M308.96,707.44C310.066,707.614 311.222,707.739 311.6,708.64C310.701,708.259 309.739,707.941 308.96,707.44" style="fill:rgb(147,176,114);"/>
            <path d="M291.68,698.08C290.681,697.719 289.688,697.351 289.28,696.4C290.066,696.975 290.974,697.426 291.68,698.08" style="fill:rgb(113,151,70);"/>
            <path d="M289.04,696.4C287.801,695.718 286.639,694.961 285.68,694C287.138,694.462 288.099,695.421 289.04,696.4" style="fill:rgb(113,151,70);"/>
            <path d="M283.76,692.32C282.402,691.678 281.599,690.481 280.4,689.68C281.942,690.138 282.799,691.281 283.76,692.32" style="fill:rgb(113,151,70);"/>
            <path d="M278.72,687.761C277.563,687.238 276.847,686.274 276.08,685.361C277.156,685.965 277.97,686.831 278.72,687.761" style="fill:rgb(147,176,114);"/>
            <path d="M272.96,682C273.817,682.264 274.251,682.949 274.64,683.681C273.853,683.348 273.419,682.661 272.96,682" style="fill:rgb(113,151,70);"/>
            <path d="M267.2,675.28C268.365,676.195 269.279,677.362 270.08,678.64C268.942,677.698 268.044,676.516 267.2,675.28" style="fill:rgb(147,176,114);"/>
            <path d="M262.4,667.841C263.188,668.893 263.788,670.133 264.56,671.2C263.437,670.484 262.872,669.208 262.4,667.841" style="fill:rgb(147,176,114);"/>
            <path d="M257.84,659.44C257.168,658.993 256.831,658.21 256.64,657.28C257.515,657.525 257.4,658.76 257.84,659.44" style="fill:rgb(147,176,114);"/>
            <path d="M253.04,646C253.437,646.572 254.02,648.208 253.76,648.641C253.369,647.911 253.056,647.104 253.04,646" style="fill:rgb(113,151,70);"/>
            <path d="M261.2,595.84C261.63,594.59 262.152,593.432 263.12,592.72C262.494,593.774 261.975,594.935 261.2,595.84" style="fill:rgb(147,176,114);"/>
            <path d="M265.76,589.121C265.169,589.81 264.906,590.827 264.08,591.281C264.326,590.246 264.995,589.636 265.76,589.121" style="fill:rgb(113,151,70);"/>
            <path d="M274.16,579.28C273.5,580.06 273.098,581.098 272,581.44C272.567,580.567 273.287,579.847 274.16,579.28" style="fill:rgb(187,205,167);"/>
            <path d="M274.88,578.561C275.805,577.406 276.954,576.475 278,575.441C277.383,576.904 276.026,577.626 274.88,578.561" style="fill:rgb(147,176,114);"/>
            <path d="M295.28,560.8C295.652,561.388 295.638,562.362 295.76,563.2C294.645,563.685 293.883,564.523 292.64,564.88C291.981,564.545 294.51,563.446 295.28,562.96Z" style="fill:rgb(147,176,114);"/>
            <path d="M300.56,484.481C300.599,485.959 300.052,486.853 299.36,487.601C299.738,486.538 300.142,485.502 300.56,484.481" style="fill:rgb(147,176,114);"/>
            <path d="M301.52,482.081C302.162,480.803 302.508,479.229 303.44,478.241C302.858,479.579 302.601,481.242 301.52,482.081" style="fill:rgb(147,176,114);"/>
            <path d="M307.04,470.561C307.324,469.885 307.588,469.189 308,468.641C307.935,469.536 307.671,470.232 307.04,470.561" style="fill:rgb(147,176,114);"/>
            <path d="M310.64,464.32C309.928,465.368 309.572,466.772 308.72,467.68C308.976,466.176 309.84,465.28 310.64,464.32" style="fill:rgb(113,151,70);"/>
            <path d="M314.72,457.601C314.812,456.572 315.663,456.304 315.92,455.441C315.877,456.518 315.161,456.922 314.72,457.601" style="fill:rgb(113,151,70);"/>
            <path d="M318.32,452.081C318.866,451.107 319.499,450.22 320.24,449.441C319.89,450.611 319.162,451.402 318.32,452.081" style="fill:rgb(113,151,70);"/>
            <path d="M320.96,448.481C321.294,447.615 321.764,446.885 322.4,446.32C322.467,446.709 322.173,446.733 322.16,447.041C321.498,447.259 321.773,448.415 320.96,448.481" style="fill:rgb(147,176,114);"/>
            <path d="M322.16,447.041C322.173,446.734 322.468,446.708 322.4,446.321C322.952,446.233 322.63,445.27 323.36,445.361L323.6,445.361C322.957,445.757 322.83,446.67 322.16,447.041" style="fill:rgb(113,151,70);"/>
            <path d="M323.36,445.36C324.172,444.252 324.836,442.996 326,442.24C325.295,443.375 324.424,444.345 323.6,445.36L323.36,445.36Z" style="fill:rgb(147,176,114);"/>
            <path d="M327.92,439.84C328.593,439.394 328.503,438.182 329.6,438.16C329.071,438.751 328.847,439.647 327.92,439.84" style="fill:rgb(147,176,114);"/>
            <path d="M332,435.52C333.377,433.777 334.885,432.166 336.56,430.72C335.351,432.631 333.675,434.076 332,435.52" style="fill:rgb(147,176,114);"/>
            <path d="M337.76,429.76C338.919,428.679 339.841,427.361 341.36,426.64C340.311,427.831 339.249,429.01 337.76,429.76" style="fill:rgb(147,176,114);"/>
            <path d="M343.28,424.96C344.405,423.605 345.772,422.492 347.36,421.6C346.089,422.809 344.743,423.943 343.28,424.96" style="fill:rgb(147,176,114);"/>
            <path d="M347.6,421.36C348.465,420.306 349.678,419.598 350.72,418.72C350.155,420.076 348.781,420.621 347.6,421.36" style="fill:rgb(147,176,114);"/>
            <path d="M355.28,415.601C356.323,414.724 357.389,413.87 358.64,413.201C357.866,414.347 356.535,414.935 355.28,415.601" style="fill:rgb(113,151,70);"/>
            <path d="M359.6,412.481C360.452,411.493 361.637,410.838 362.96,410.32C361.953,411.154 360.818,411.858 359.6,412.481" style="fill:rgb(147,176,114);"/>
            <path d="M363.68,410.081C364.872,408.473 367.054,407.854 368.48,406.481C369.388,406.829 368.941,405.821 369.68,406.001C369.874,405.956 369.919,405.76 370.16,405.761C368.157,407.357 365.743,408.543 363.68,410.081" style="fill:rgb(113,151,70);"/>
            <path d="M373.52,403.601C374.278,403.399 374.682,402.843 375.44,402.641C374.838,403.319 374.059,403.82 373.04,404.081C373.042,403.764 373.46,403.862 373.52,403.601" style="fill:rgb(113,151,70);"/>
            <path d="M384.56,397.601C383.746,398.387 382.906,399.147 381.44,399.281C382.526,398.767 383.406,398.047 384.56,397.601" style="fill:rgb(147,176,114);"/>
            <path d="M386.72,396.88C387.086,396.206 387.924,396.004 388.64,395.68C388.274,396.354 387.436,396.556 386.72,396.88" style="fill:rgb(147,176,114);"/>
            <path d="M391.28,394.481C392.187,394.108 392.933,393.574 393.92,393.281C394.172,393.707 391.64,394.666 391.28,394.481" style="fill:rgb(113,151,70);"/>
            <path d="M396.32,392.32C396.879,391.919 397.613,391.693 398.48,391.6C398.01,392.091 397.276,392.316 396.32,392.32" style="fill:rgb(147,176,114);"/>
            <path d="M401.12,390.4C401.925,389.924 402.891,389.611 404,389.44C403.289,390.009 402.323,390.323 401.12,390.4" style="fill:rgb(113,151,70);"/>
            <path d="M404.96,388.96C405.801,388.441 406.961,388.242 408.08,388C407.191,388.471 406.248,388.888 404.96,388.96" style="fill:rgb(113,151,70);"/>
            <path d="M458.48,378.641C459.8,378.521 461.625,378.906 462.56,378.401C462.028,379.389 459.773,378.654 458.48,378.881L458.48,378.641Z" style="fill:rgb(113,151,70);"/>
            <path d="M462.8,377.92C463.394,376.994 463.799,375.878 464.72,375.28C464.136,376.216 463.7,377.3 462.8,377.92" style="fill:rgb(147,176,114);"/>
            <path d="M464.96,375.041C465.31,374.27 465.758,373.599 466.4,373.121L466.64,373.121C465.913,373.594 465.778,374.659 464.96,375.041" style="fill:rgb(113,151,70);"/>
            <path d="M471.2,367.84C471.721,366.76 472.448,365.888 473.36,365.2C472.83,366.27 471.981,367.021 471.2,367.84" style="fill:rgb(147,176,114);"/>
            <path d="M480.8,358.24C482.103,356.823 483.715,355.715 485.36,354.64C484.022,356.022 482.447,357.167 480.8,358.24" style="fill:rgb(147,176,114);"/>
            <path d="M485.6,354.641C485.809,353.809 486.906,353.866 487.28,353.201C487.174,354.134 486.183,354.183 485.6,354.641" style="fill:rgb(113,151,70);"/>
            <path d="M493.28,349.36C494.905,348.745 495.867,347.467 497.6,346.96C496.257,347.857 495.188,349.028 493.28,349.36" style="fill:rgb(113,151,70);"/>
            <path d="M498.56,346.721C499.059,346.02 499.814,345.575 500.72,345.281C500.084,345.845 499.354,346.316 498.56,346.721" style="fill:rgb(113,151,70);"/>
            <path d="M501.68,344.32C503.098,344.218 503.228,342.828 504.8,342.88C503.44,343.52 502.537,344.617 500.96,345.04C500.987,344.587 501.754,344.874 501.68,344.32" style="fill:rgb(113,151,70);"/>
            <path d="M507.92,340.96C508.583,340.583 509.006,339.966 510.08,340C509.47,340.431 508.835,340.835 507.92,340.96" style="fill:rgb(113,151,70);"/>
            <path d="M519.92,335.44C520.169,334.648 521.482,334.922 522.08,334.48C521.832,335.272 520.518,334.998 519.92,335.44" style="fill:rgb(187,205,167);"/>
            <path d="M586.88,335.92C587.975,336.135 588.24,335.52 589.04,335.44C588.927,336.061 587.408,336.51 586.88,335.92" style="fill:rgb(187,205,167);"/>
            <path d="M590.72,334.481C590.509,335.149 589.756,335.276 589.04,335.44C589.359,334.88 590.113,334.752 590.72,334.481" style="fill:rgb(113,151,70);"/>
            <path d="M591.2,334.24C591.921,333.761 592.709,333.348 593.6,333.04C592.901,333.541 592.411,334.251 591.2,334.24" style="fill:rgb(147,176,114);"/>
            <path d="M505.28,342.4C505.737,341.817 506.42,341.46 507.2,341.2C506.679,341.799 505.882,342.122 505.28,342.64L505.28,342.4Z" style="fill:rgb(147,176,114);"/>
            <path d="M487.76,353.2C488.999,351.319 491.348,350.549 493.28,349.36C491.633,350.832 489.395,351.715 487.76,353.2" style="fill:rgb(147,176,114);"/>
            <path d="M474.08,364.721C474.897,362.738 476.726,361.767 478.16,360.401C476.988,362.029 475.307,363.147 474.08,364.721" style="fill:rgb(147,176,114);"/>
            <path d="M752.48,365.92C751.579,365.381 751.056,364.464 750.56,363.52C751.428,364.092 751.952,365.009 752.48,365.92" style="fill:rgb(147,176,114);"/>
            <path d="M468.08,371.2C468.482,370.402 468.999,369.72 469.76,369.28C469.48,370.2 468.747,370.667 468.08,371.2" style="fill:rgb(187,205,167);"/>
            <path d="M466.4,373.121C466.418,372.019 467.381,371.862 467.84,371.201C467.765,372.166 466.623,372.064 466.64,373.121L466.4,373.121Z" style="fill:rgb(147,176,114);"/>
            <path d="M369.68,406C370.283,405.322 371.061,404.822 372.08,404.56C371.558,405.078 370.848,405.409 370.16,405.76C369.919,405.76 369.874,405.955 369.68,406" style="fill:rgb(187,205,167);"/>
            <path d="M824.48,443.2C824.3,443.883 824.991,444.898 825.44,444.16C825.144,444.055 824.947,443.853 824.96,443.44C825.187,443.853 825.846,443.833 825.68,444.64C824.293,445.312 823.74,442.384 824.48,443.2" style="fill:rgb(113,151,70);"/>
            <path d="M311.12,463.36C311.957,461.236 313.063,459.382 314.48,457.84C313.409,459.729 312.338,461.618 311.12,463.36" style="fill:rgb(147,176,114);"/>
            <path d="M294.8,561.76L295.28,561.76L295.28,562.96C294.51,563.446 291.981,564.545 292.64,564.88C291.333,565.734 289.748,566.308 288.56,567.28C288.559,567.039 288.755,566.994 288.8,566.8C286.557,567.437 285.051,568.811 283.04,569.68C285.17,567.49 288.359,566.359 290.72,564.4L290.96,564.4C292.358,563.638 293.633,562.753 294.8,561.76" style="fill:rgb(187,205,167);"/>
            <path d="M845.84,564.641C845.761,563.602 846.171,563.052 846.8,562.721C846.72,563.601 845.849,563.69 846.08,564.881C845.934,564.867 845.796,564.845 845.84,564.641" style="fill:rgb(147,176,114);"/>
            <path d="M852.08,576.641C852.902,577.419 853.418,578.503 853.519,580.001C853.098,579.943 852.973,579.588 853.04,579.041C852.835,578.125 852.326,577.515 852.08,576.641" style="fill:rgb(147,176,114);"/>
            <path d="M266,588.4C266.729,586.969 267.902,585.983 268.88,584.8C268.28,586.36 266.956,587.196 266,588.4" style="fill:rgb(147,176,114);"/>
            <path d="M864.8,639.28C864.675,644.515 863.303,648.503 861.92,652.48C861.75,651.591 862.33,651.45 862.16,650.56C862.685,649.165 863.193,647.753 863.12,645.76L863.12,645.52C863.265,643.025 864.409,641.529 864.8,639.28" style="fill:rgb(147,176,114);"/>
            <path d="M448.64,676C450.577,672.978 452.463,669.903 454.64,667.12C454.312,668.072 453.681,668.721 453.2,669.521C452.339,670.899 451.34,672.141 450.56,673.601C449.753,674.233 449.61,675.53 448.64,676" style="fill:rgb(113,151,70);"/>
            <path d="M445.28,680.561C445.837,679.677 446.324,678.725 447.2,678.161C446.835,679.156 445.971,679.652 445.52,680.561L445.28,680.561Z" style="fill:rgb(113,151,70);"/>
            <path d="M443.84,682.721C444.199,681.88 444.883,681.365 445.28,680.561L445.52,680.561C445.219,681.459 444.498,681.939 444.08,682.721L443.84,682.721Z" style="fill:rgb(147,176,114);"/>
            <path d="M440.48,687.04C440.362,686.434 441.937,684.186 442.64,684.4C441.834,685.114 441.36,686.16 440.48,686.801L440.48,687.04Z" style="fill:rgb(113,151,70);"/>
            <path d="M439.52,690.881C440.004,691.196 440.332,691.668 440.48,692.32C440.93,693.457 439.598,691.47 439.52,690.881" style="fill:rgb(147,176,114);"/>
            <path d="M445.04,698.801C445.633,699.087 445.978,699.622 446.24,700.24C446.707,701.33 445.223,699.331 445.04,698.801" style="fill:rgb(147,176,114);"/>
            <path d="M449.36,704.32C448.805,703.836 448.078,703.522 447.92,702.64C448.575,702.945 448.877,703.603 449.36,704.08L449.36,704.32Z" style="fill:rgb(113,151,70);"/>
            <path d="M450.8,706.24C451.514,706.566 451.797,707.324 452.24,707.92C452.628,709.008 451.027,706.834 450.8,706.24" style="fill:rgb(147,176,114);"/>
            <path d="M453.68,709.841C454.842,710.839 455.593,712.248 456.56,713.441C455.433,712.408 454.442,711.238 453.68,709.841" style="fill:rgb(113,151,70);"/>
            <path d="M462.08,719.681C461.204,719.197 460.781,718.259 460.16,717.521C460.998,717.962 461.361,718.879 462.08,719.441L462.08,719.681Z" style="fill:rgb(147,176,114);"/>
            <path d="M466.4,724.481C465.266,723.455 464.026,722.534 463.28,721.12C464.027,721.494 464.357,722.284 464.96,722.801C465.292,723.509 466.068,723.773 466.4,724.481" style="fill:rgb(113,151,70);"/>
            <path d="M466.64,724.721C467.272,724.969 467.449,725.672 468.08,725.92C468.412,726.629 469.188,726.893 469.52,727.601C468.46,726.742 467.5,725.782 466.64,724.721" style="fill:rgb(113,151,70);"/>
            <path d="M488.48,742.481C487.738,742.183 487.192,741.688 486.8,741.04C487.57,741.231 487.849,741.913 488.48,742.24L488.48,742.481Z" style="fill:rgb(113,151,70);"/>
            <path d="M507.44,661.601C508.27,661.411 508.453,661.868 508.88,662.08C513.778,679.744 518.415,697.666 519.68,718.96L519.68,725.201C519.127,725.848 519.595,727.516 519.44,728.561L519.44,730C518.888,730.569 519.354,732.155 519.2,733.121L519.2,734.561C518.649,735.05 519.113,736.554 518.96,737.441L518.96,739.121C518.411,739.532 518.872,740.953 518.72,741.761C518.615,746.776 516.446,749.727 515.36,753.761C512.581,754.298 509.057,755.732 506.72,754C506.42,753.42 505.736,753.225 505.04,753.04C498.816,750.225 493.847,746.154 488.48,742.481L488.48,742.241C487.849,741.913 487.57,741.231 486.8,741.04C481.798,736.922 476.148,733.453 471.44,729.04C471.061,728.459 470.581,727.98 470,727.601C469.22,726.621 468.34,725.741 467.36,724.96C466.778,724.582 466.298,724.102 465.92,723.521C465.14,722.54 464.26,721.661 463.28,720.881C462.578,720.783 462.501,720.06 462.08,719.681L462.08,719.441C461.361,718.879 460.998,717.962 460.16,717.521C458.864,716.256 457.728,714.833 456.56,713.441C455.593,712.248 454.841,710.839 453.68,709.841C453.077,709.324 452.923,708.358 452.24,707.92C451.796,707.325 451.514,706.567 450.8,706.241C450.411,705.51 449.595,705.205 449.36,704.321L449.36,704.08C448.877,703.604 448.575,702.946 447.92,702.641C447.393,701.808 446.939,700.902 446.24,700.241C445.978,699.622 445.633,699.087 445.04,698.801C443.487,696.674 441.87,694.611 440.48,692.321C440.332,691.668 440.004,691.197 439.52,690.881C438.064,689.666 439.314,687.69 440.48,687.04L440.48,686.801C441.36,686.161 441.834,685.115 442.64,684.401C443.03,683.831 443.586,683.426 443.84,682.721L444.08,682.721C444.498,681.939 445.219,681.459 445.52,680.561C445.971,679.652 446.835,679.156 447.2,678.161L447.44,678.161C448.572,676.891 450.248,674.892 450.56,673.601C451.34,672.141 452.339,670.9 453.2,669.521C453.877,669.392 454.92,667.566 455.36,666.401C455.747,665.988 455.832,665.273 456.32,664.96L457.04,664.96C459.059,665.501 461.085,666.036 463.76,665.92C464.328,666.473 465.914,666.007 466.88,666.161L469.76,666.161C470.486,666.714 472.235,666.246 473.36,666.401L479.84,666.401C480.806,666.247 482.392,666.713 482.96,666.161C483.457,666.018 484.537,666.457 484.64,665.92C487.374,665.615 490.139,665.339 492.8,664.96C493.793,664.995 494.654,664.895 495.2,664.481C497.601,664.082 499.853,663.534 502.16,663.04C503.052,662.654 504.48,662.801 505.04,662.08C506,662.08 506.481,661.601 507.44,661.601" style="fill:white;"/>
            <path d="M470,727.601C469.213,727.187 468.866,726.334 468.08,725.92C468.009,725.431 467.431,725.451 467.36,724.96C468.34,725.741 469.22,726.621 470,727.601" style="fill:rgb(227,234,218);"/>
            <path d="M465.92,723.521C465.431,723.451 465.449,722.872 464.96,722.801C464.357,722.285 464.027,721.494 463.28,721.121L463.28,720.881C464.26,721.661 465.14,722.541 465.92,723.521" style="fill:rgb(227,234,218);"/>
            <path d="M450.56,673.601C450.248,674.892 448.572,676.891 447.44,678.161C447.531,677.132 448.299,676.78 448.64,676C449.61,675.531 449.753,674.234 450.56,673.601" style="fill:rgb(227,234,218);"/>
            <path d="M453.2,669.52C453.681,668.721 454.312,668.072 454.64,667.12C454.864,666.944 455.004,666.683 455.12,666.4L455.36,666.4C454.921,667.565 453.877,669.391 453.2,669.52" style="fill:rgb(227,234,218);"/>
            <path d="M638.24,707.681C638.756,708.125 638.393,709.447 638.96,709.841C639.291,710.15 639.197,710.883 639.2,711.521C638.539,710.581 638.387,709.133 638.24,707.681" style="fill:rgb(113,151,70);"/>
            <path d="M643.04,727.12C643.803,728.277 645.215,728.785 645.92,730C644.661,729.34 643.701,728.379 643.04,727.12" style="fill:rgb(147,176,114);"/>
            <path d="M664.16,721.36C663.959,721.923 661.945,723.544 662.479,722.56C663.026,722.226 663.409,721.73 663.92,721.36L664.16,721.36Z" style="fill:rgb(113,151,70);"/>
            <path d="M705.439,689.44C704.874,689.126 704.421,688.699 704,688.24C703.929,687.751 703.35,687.769 703.28,687.28C704.1,687.899 704.82,688.62 705.439,689.44" style="fill:rgb(113,151,70);"/>
            <path d="M701.6,685.36C701.072,684.769 700.496,684.223 700.161,683.44C700.85,683.87 701.351,684.489 701.6,685.36" style="fill:rgb(113,151,70);"/>
            <path d="M693.92,673.601C694.561,672.667 695.527,674.685 695.12,674.801C694.441,674.679 695.052,673.269 693.92,673.601" style="fill:rgb(147,176,114);"/>
            <path d="M704,688.24C703.228,687.653 702.483,687.037 702.08,686.08C702.582,686.378 702.981,686.778 703.28,687.28C703.351,687.769 703.93,687.751 704,688.24" style="fill:rgb(187,205,167);"/>
            <path d="M701.84,688.721C702.473,688.793 702.628,688.388 702.56,687.761L701.84,687.761L701.84,688.721ZM702.08,686.08C702.484,687.037 703.228,687.654 704,688.241C704.422,688.7 704.874,689.126 705.44,689.441C692.08,700.481 678.76,711.561 664.16,721.361L663.92,721.361C663.409,721.731 663.027,722.227 662.48,722.561C658.531,726.612 652.282,728.363 645.92,730C645.215,728.785 643.803,728.278 643.04,727.12C641.287,722.393 639.993,717.207 639.2,711.521C639.197,710.883 639.291,710.15 638.96,709.841C638.69,705.711 638.191,701.811 638,697.601L638,686.801C638.549,686.39 638.088,684.969 638.24,684.16L638.96,684.16C639.768,684.009 641.19,684.47 641.6,683.92L642.08,683.92C642.81,683.77 644.148,684.228 644.48,683.681C663.198,682.559 678.78,678.301 693.92,673.601C695.052,673.269 694.442,674.679 695.12,674.801C695.081,675.079 695.173,675.228 695.36,675.281C695.544,675.977 695.739,676.661 696.32,676.96C697.439,679.283 698.877,681.283 700.16,683.441C700.496,684.224 701.071,684.77 701.6,685.361C701.685,685.676 702.023,685.739 702.08,686.08" style="fill:white;"/>
            <path d="M848,680.32C848.187,678.907 849.216,678.336 849.92,677.44C849.682,678.722 848.474,679.034 848.24,680.32L848,680.32Z" style="fill:rgb(147,176,114);"/>
            <path d="M637.04,697.36L637.04,686.8C637.047,685.528 636.715,683.916 638,683.92L638.96,683.92L638.96,684.16L638.24,684.16C637.959,684.199 638.037,684.597 638,684.881C637.447,685.527 637.915,687.195 637.76,688.24L637.76,693.76C637.916,694.964 637.445,696.795 638,697.6C638.19,701.81 638.689,705.711 638.96,709.84C638.394,709.446 638.756,708.125 638.24,707.68C637.695,704.384 636.932,701.308 637.04,697.36" style="fill:rgb(147,176,114);"/>
            <path d="M842,688.481C841.385,689.465 840.825,690.505 839.84,691.12C840.518,690.198 840.914,688.995 842,688.481" style="fill:rgb(147,176,114);"/>
            <path d="M833.6,696.881C834.228,696.228 835.199,695.919 835.76,695.2C835.43,696.151 834.613,696.613 833.6,696.881" style="fill:rgb(113,151,70);"/>
            <path d="M831.439,699.04C831.859,698.42 832.263,697.784 833.12,697.601C832.841,698.363 832.084,698.645 831.439,699.04" style="fill:rgb(147,176,114);"/>
            <path d="M814.64,709.841C815.178,709.098 815.956,708.597 817.04,708.401C816.355,708.995 815.577,709.496 814.64,709.841" style="fill:rgb(113,151,70);"/>
            <path d="M466.4,724.481C466.068,723.773 465.292,723.509 464.96,722.801C465.449,722.871 465.431,723.451 465.92,723.52C466.298,724.101 466.778,724.582 467.36,724.96C467.431,725.451 468.009,725.431 468.08,725.919C467.448,725.672 467.272,724.969 466.64,724.721C466.436,724.764 466.414,724.626 466.4,724.481" style="fill:rgb(187,205,167);"/>
            <path d="M469.52,727.601C469.188,726.893 468.412,726.629 468.08,725.92C468.866,726.334 469.213,727.187 470,727.601C470.581,727.98 471.061,728.459 471.44,729.04C470.779,728.581 470.181,728.06 469.52,727.601" style="fill:rgb(147,176,114);"/>
            <path d="M670.88,788.08C670.434,788.914 670.105,789.865 669.44,790.48C669.487,789.247 670.281,788.762 670.88,788.08" style="fill:rgb(147,176,114);"/>
            <path d="M666.56,795.28C666.471,796.071 665.999,796.479 665.6,796.96C665.583,796.063 665.986,795.586 666.56,795.28" style="fill:rgb(113,151,70);"/>
            <path d="M500.72,939.04L500.72,938.801C502.34,940.221 503.86,941.74 505.28,943.36L505.04,943.36C503.7,941.82 502.26,940.38 500.72,939.04" style="fill:rgb(187,205,167);"/>
            <path d="M505.28,943.36C503.86,941.74 502.34,940.22 500.72,938.8C500.447,938.273 499.917,938.003 499.76,937.36C502.39,940.491 505.791,942.849 508.64,945.76C507.292,945.188 506.407,944.153 505.28,943.36" style="fill:rgb(147,176,114);"/>
            <path d="M520.88,953.2C518.183,951.897 515.828,950.252 513.2,948.881C512.162,948.318 511.088,947.792 510.32,946.96C512.776,948.024 514.682,949.637 517.04,950.801C518.291,951.389 519.531,951.989 520.64,952.721C520.639,952.961 520.834,953.006 520.88,953.2" style="fill:rgb(147,176,114);"/>
            <path d="M514.4,949.841C514.039,949.482 513.389,949.411 513.2,948.881C515.828,950.252 518.183,951.898 520.88,953.2L521.12,953.2C522.211,954.27 523.866,954.775 525.44,955.361C525.282,955.038 524.927,954.913 524.48,954.881L524.48,954.641C528.094,956.386 532.528,957.312 536.24,958.96C532.845,958.835 530.811,957.349 527.84,956.801C526.928,956.432 525.975,956.106 524.96,955.841C523.869,955.012 522.288,954.672 521.12,953.92C519.875,953.325 518.912,952.448 517.52,952C516.664,951.097 515.498,950.502 514.4,949.841" style="fill:rgb(187,205,167);"/>
            <path d="M521.12,953.2C522.19,953.65 523.036,954.325 524.24,954.64L524.48,954.64L524.48,954.881C524.927,954.913 525.283,955.038 525.44,955.36C523.867,954.774 522.211,954.269 521.12,953.2" style="fill:rgb(147,176,114);"/>
            <rect x="655.04" y="317.44" width="6.479" height="0.24" style="fill:rgb(227,234,218);"/>
            <path d="M666.08,317.92C666.429,318.051 667.32,317.64 667.28,318.16C666.551,318.009 665.213,318.467 664.88,317.92L666.08,317.92Z" style="fill:rgb(147,176,114);"/>
            <path d="M703.04,328.481C703.736,328.665 704.42,328.86 704.72,329.44C704.023,329.257 703.34,329.062 703.04,328.481" style="fill:rgb(147,176,114);"/>
            <path d="M548.24,329.92C548.419,329.378 549.586,329.826 550.16,329.68L551.12,329.68L551.12,329.92L548.24,329.92Z" style="fill:rgb(147,176,114);"/>
            <path d="M560.48,329.681C561.054,329.827 562.221,329.379 562.4,329.921C561.355,329.766 559.687,330.234 559.04,329.681L560.48,329.681Z" style="fill:rgb(187,205,167);"/>
            <path d="M563.6,329.92C564.329,330.07 565.667,329.613 566,330.16C565.271,330.009 563.933,330.467 563.6,329.92" style="fill:rgb(187,205,167);"/>
            <path d="M705.439,329.681C706.135,329.865 706.82,330.06 707.12,330.641C706.423,330.457 705.739,330.261 705.439,329.681" style="fill:rgb(147,176,114);"/>
            <path d="M455.84,378.88C456.251,378.331 457.672,378.792 458.48,378.64L458.48,378.88L455.84,378.88Z" style="fill:rgb(147,176,114);"/>
            <path d="M760.88,380.561C760.297,380.184 759.981,379.54 759.92,378.641C760.378,379.143 760.693,379.787 760.88,380.561" style="fill:rgb(147,176,114);"/>
            <path d="M810.32,410.561C811.015,410.745 811.7,410.94 812,411.521C811.303,411.337 810.619,411.141 810.32,410.561" style="fill:rgb(147,176,114);"/>
            <path d="M865.28,464.32C864.699,464.021 864.504,463.337 864.32,462.64C864.9,462.94 865.095,463.624 865.28,464.32" style="fill:rgb(147,176,114);"/>
            <path d="M304.88,474.88C304.811,475.771 304.609,476.529 303.92,476.8C304.264,476.184 304.32,475.28 304.88,474.88" style="fill:rgb(147,176,114);"/>
            <path d="M873.439,500.081C873.293,500.655 873.741,501.822 873.2,502.001L873.2,498.161L873.439,498.161L873.439,500.081Z" style="fill:rgb(147,176,114);"/>
            <path d="M873.2,502.96C873.05,503.689 873.507,505.027 872.96,505.36C873.11,504.63 872.652,503.293 873.2,502.96" style="fill:rgb(147,176,114);"/>
            <path d="M291.68,525.041C291.834,524.075 291.368,522.489 291.92,521.921L291.92,525.041L291.68,525.041Z" style="fill:rgb(187,205,167);"/>
            <path d="M853.04,532.24C852.777,532.778 852.643,533.443 852.32,533.92C851.783,533.817 852.223,532.738 852.08,532.24L853.04,532.24Z" style="fill:rgb(113,151,70);"/>
            <path d="M291.68,536.32C291.128,535.752 291.594,534.166 291.44,533.2L291.44,528.4L291.68,528.4L291.68,536.32Z" style="fill:rgb(147,176,114);"/>
            <path d="M291.68,537.28C292.231,537.769 291.767,539.273 291.92,540.16C291.369,539.671 291.833,538.167 291.68,537.28" style="fill:rgb(187,205,167);"/>
            <path d="M863.84,537.28C863.656,537.976 863.46,538.66 862.88,538.96C863.064,538.264 863.26,537.58 863.84,537.28" style="fill:rgb(147,176,114);"/>
            <path d="M854.96,550.96C854.473,551.673 854.218,552.618 853.52,553.12C853.764,552.164 854.246,551.446 854.96,550.96" style="fill:rgb(147,176,114);"/>
            <path d="M847.28,567.28C846.699,566.981 846.504,566.297 846.32,565.6C846.9,565.9 847.095,566.584 847.28,567.28" style="fill:rgb(147,176,114);"/>
            <path d="M853.04,579.041C852.258,578.063 851.864,576.696 851.359,575.441C851.834,575.607 852,576.081 852.08,576.641C852.326,577.515 852.835,578.125 853.04,579.041" style="fill:rgb(113,151,70);"/>
            <path d="M855.68,586.481C856.178,587.104 856.497,587.903 856.64,588.88C855.955,588.446 855.867,587.414 855.68,586.481" style="fill:rgb(147,176,114);"/>
            <path d="M862.399,608.801C862.839,610.28 863.479,611.562 863.359,613.601C862.672,613.569 863.567,611.953 862.879,611.92C862.585,611.016 862.395,610.004 862.399,608.801" style="fill:rgb(147,176,114);"/>
            <path d="M863.6,617.681L863.6,616.721C864.371,618.99 864.604,621.797 865.04,624.401L865.04,626.561C865.195,627.606 864.727,629.274 865.281,629.92L865.281,631.841C864.733,632.173 865.191,633.511 865.04,634.241L865.04,636.641C864.89,637.37 865.347,638.708 864.8,639.04C864.652,638.389 865.105,637.136 864.56,636.881C864.419,637.094 864.056,638.249 863.84,637.601L863.84,635.92C864.241,632 864.24,626.402 863.84,622.481L863.84,621.761C863.686,620.715 864.153,619.048 863.6,618.401L863.6,617.681Z" style="fill:rgb(147,176,114);"/>
            <path d="M251.84,637.841C252.208,638.752 252.239,640.002 252.32,641.2C251.84,640.401 251.81,639.151 251.84,637.841" style="fill:rgb(147,176,114);"/>
            <path d="M508.88,662.08C508.453,661.867 508.27,661.41 507.44,661.601C507.475,661.076 508.045,661.085 508.64,661.12C508.609,661.551 508.934,661.627 508.88,662.08" style="fill:rgb(147,176,114);"/>
            <path d="M505.04,662.08C504.48,662.801 503.052,662.653 502.16,663.04C502.8,662.401 503.963,662.284 505.04,662.08" style="fill:rgb(113,151,70);"/>
            <path d="M495.2,664.481C494.654,664.894 493.793,664.995 492.8,664.96C493.241,664.442 494.215,664.456 495.2,664.481" style="fill:rgb(147,176,114);"/>
            <path d="M457.04,664.96L456.32,664.96C455.832,665.273 455.747,665.987 455.36,666.4L455.12,666.4C455.289,665.6 456.039,664.132 457.04,664.96" style="fill:rgb(113,151,70);"/>
            <path d="M857.6,664C857.319,664.76 857.162,665.642 856.64,666.16C856.619,665.099 856.988,664.429 857.6,664" style="fill:rgb(113,151,70);"/>
            <path d="M463.76,665.92L466.88,665.92L466.88,666.16C465.914,666.007 464.328,666.473 463.76,665.92" style="fill:rgb(147,176,114);"/>
            <path d="M482,665.92L484.64,665.92C484.537,666.457 483.457,666.018 482.96,666.16L482,666.16L482,665.92Z" style="fill:rgb(147,176,114);"/>
            <path d="M696.32,676.96C695.739,676.661 695.544,675.977 695.359,675.28C695.94,675.58 696.135,676.264 696.32,676.96" style="fill:rgb(147,176,114);"/>
            <path d="M642.08,683.92C642.412,683.373 643.75,683.831 644.479,683.681C644.147,684.228 642.809,683.77 642.08,683.92" style="fill:rgb(147,176,114);"/>
            <path d="M352.88,718C349.832,718.146 355.845,718.805 355.52,719.2C351.186,718.577 344.32,718.763 340.64,717.521C340.266,717.395 336.938,716.271 338.24,716.08C341.438,716.322 344.124,717.077 347.36,717.28C347.692,717.828 349.03,717.37 349.76,717.521C350.252,718.229 352.388,717.293 352.88,718" style="fill:rgb(227,234,218);"/>
            <path d="M770,716.801C770.808,716.952 772.229,716.491 772.64,717.04C771.832,716.889 770.41,717.35 770,716.801" style="fill:rgb(147,176,114);"/>
            <path d="M347.36,717.28C348.089,717.43 349.427,716.973 349.76,717.52C349.03,717.37 347.693,717.828 347.36,717.28" style="fill:rgb(113,151,70);"/>
            <path d="M390.08,718.481C390.569,717.929 392.073,718.394 392.96,718.24C392.471,718.792 390.967,718.327 390.08,718.481" style="fill:rgb(147,176,114);"/>
            <path d="M361.28,718.481L364.64,718.481L364.64,718.721C363.595,718.566 361.927,719.034 361.28,718.481" style="fill:rgb(187,205,167);"/>
            <path d="M364.64,718.481C366.163,718.638 368.317,718.164 369.44,718.721L364.64,718.721L364.64,718.481Z" style="fill:rgb(147,176,114);"/>
            <path d="M385.52,718.721C386.246,718.167 387.995,718.636 389.12,718.481C388.394,719.034 386.645,718.566 385.52,718.721" style="fill:rgb(147,176,114);"/>
            <path d="M378.56,718.721L384.56,718.721C383.038,719.279 380.481,718.802 378.56,718.96L378.56,718.721Z" style="fill:rgb(147,176,114);"/>
            <path d="M519.68,726.641L519.68,728.561L519.44,728.561C519.595,727.516 519.127,725.848 519.68,725.201L519.68,726.641Z" style="fill:rgb(187,205,167);"/>
            <path d="M519.44,731.2C519.294,731.774 519.741,732.941 519.2,733.12C519.354,732.154 518.888,730.568 519.44,730L519.44,731.2Z" style="fill:rgb(187,205,167);"/>
            <path d="M519.2,734.561C519.047,735.447 519.511,736.952 518.96,737.441C519.113,736.554 518.649,735.05 519.2,734.561" style="fill:rgb(187,205,167);"/>
            <path d="M518.96,739.12C518.808,739.929 519.269,741.349 518.72,741.761C518.872,740.952 518.411,739.531 518.96,739.12" style="fill:rgb(187,205,167);"/>
            <path d="M505.04,753.04C505.736,753.225 506.42,753.42 506.72,754C506.023,753.816 505.339,753.621 505.04,753.04" style="fill:rgb(147,176,114);"/>
            <path d="M665.6,796.96C665.162,797.563 665.101,798.541 664.4,798.881C664.583,798.023 665.019,797.419 665.6,796.96" style="fill:rgb(147,176,114);"/>
            <path d="M658.88,809.92C658.951,810.871 658.587,811.388 658.16,811.841C658.236,811.036 658.407,810.327 658.88,809.92" style="fill:rgb(113,151,70);"/>
            <path d="M655.04,818.561C654.853,819.334 654.538,819.979 654.08,820.481C654.141,819.582 654.457,818.938 655.04,818.561" style="fill:rgb(147,176,114);"/>
            <path d="M477.92,820.24C477.339,819.94 477.144,819.257 476.96,818.56C477.54,818.86 477.736,819.544 477.92,820.24" style="fill:rgb(147,176,114);"/>
            <path d="M651.92,825.28C651.991,826.231 651.627,826.747 651.2,827.2C651.23,826.35 651.594,825.835 651.92,825.28" style="fill:rgb(147,176,114);"/>
            <path d="M650.48,828.641C650.536,829.656 650.101,830.183 649.76,830.801C649.764,829.845 649.99,829.111 650.48,828.641" style="fill:rgb(147,176,114);"/>
            <path d="M487.76,842.08C487.37,841.67 487.033,841.207 487.04,840.4C487.621,840.619 487.676,841.365 487.76,842.08" style="fill:rgb(147,176,114);"/>
            <path d="M645.68,850C645.537,850.498 645.977,851.577 645.44,851.681L645.201,851.681C645.161,850.922 645.192,850.232 645.68,850" style="fill:rgb(147,176,114);"/>
            <path d="M645.439,851.681C645.46,853.46 645.366,855.127 644.96,856.481L644.719,856.481C644.487,854.488 645.486,853.726 645.2,851.681L645.439,851.681Z" style="fill:rgb(187,205,167);"/>
            <path d="M491.12,851.44C491.67,851.85 491.688,852.793 491.84,853.6C491.35,853.13 491.124,852.396 491.12,851.44" style="fill:rgb(147,176,114);"/>
            <path d="M493.04,857.2C492.62,856.741 492.531,855.949 492.32,855.28C492.947,855.533 493.104,856.256 493.04,857.2" style="fill:rgb(113,151,70);"/>
            <path d="M644.96,856.481C644.812,857.131 645.265,858.385 644.72,858.64L644.48,858.64C644.314,857.674 644.71,857.27 644.72,856.481L644.96,856.481Z" style="fill:rgb(147,176,114);"/>
            <path d="M644.72,858.641C644.714,860.715 644.622,862.703 644.241,864.401L644.241,862.96C644.266,861.466 644.638,860.319 644.48,858.641L644.72,858.641Z" style="fill:rgb(187,205,167);"/>
            <path d="M644.24,864.4L644.24,865.6L644,865.6C644.151,864.792 643.69,863.371 644.24,862.96L644.24,864.4Z" style="fill:rgb(113,151,70);"/>
            <path d="M644,870.16C643.857,870.657 644.297,871.737 643.76,871.841L643.76,868.721L644,868.721L644,870.16Z" style="fill:rgb(147,176,114);"/>
            <path d="M643.519,875.2C643.687,876.726 643.114,877.513 643.28,879.04L643.04,879.04C643.028,877.588 642.971,876.092 643.519,875.2" style="fill:rgb(147,176,114);"/>
            <path d="M643.04,882.16L643.04,888.16C642.482,886.638 642.958,884.082 642.8,882.16L643.04,882.16Z" style="fill:rgb(147,176,114);"/>
            <path d="M643.28,888.641L643.28,891.281C642.73,890.87 643.191,889.449 643.04,888.641L643.28,888.641Z" style="fill:rgb(113,151,70);"/>
            <path d="M497.6,888.16C497.442,890.322 497.918,893.118 497.36,894.881L497.36,888.16L497.6,888.16Z" style="fill:rgb(147,176,114);"/>
            <path d="M643.519,892.481C644.064,892.736 643.611,893.99 643.76,894.64L643.76,898C643.202,896.638 643.678,894.242 643.519,892.481" style="fill:rgb(113,151,70);"/>
            <path d="M497.36,894.881C497.21,895.61 497.667,896.947 497.12,897.28C497.275,896.235 496.807,894.568 497.36,893.92L497.36,894.881Z" style="fill:rgb(187,205,167);"/>
            <path d="M496.88,900.641C496.722,902.323 497.197,904.638 496.64,905.92L496.64,903.04C496.791,902.311 496.333,900.973 496.88,900.641" style="fill:rgb(113,151,70);"/>
            <path d="M644.48,901.601L644.48,903.521C644.201,903.481 644.22,903.141 644.24,902.801L644.24,899.441L644.48,899.441L644.48,901.601Z" style="fill:rgb(187,205,167);"/>
            <path d="M644.48,904.96L644.48,901.601C645.034,902.247 644.566,903.915 644.72,904.96L644.48,904.96Z" style="fill:rgb(227,234,218);"/>
            <path d="M496.64,903.04L496.64,905.92C496.502,906.342 496.93,907.33 496.4,907.36C496.557,905.997 496.084,904.005 496.64,903.04" style="fill:rgb(147,176,114);"/>
            <path d="M644.72,904.96C644.641,905.92 645.148,906.293 644.96,907.36C644.546,906.814 644.447,905.954 644.48,904.96L644.72,904.96Z" style="fill:rgb(147,176,114);"/>
            <path d="M559.04,962.561C560.961,962.719 563.518,962.244 565.04,962.801L559.04,962.801L559.04,962.561Z" style="fill:rgb(113,151,70);"/>
            <path d="M581.36,962.801C582.723,962.243 585.118,962.719 586.88,962.561C585.677,963.117 583.443,962.643 581.84,962.801L581.36,962.801Z" style="fill:rgb(147,176,114);"/>
            <rect x="571.52" y="962.801" width="6.96" height="0.239" style="fill:rgb(147,176,114);"/>
            <path d="M661.76,317.681C663.123,317.837 665.115,317.365 666.08,317.921L661.76,317.921L661.76,317.681Z" style="fill:rgb(227,234,218);"/>
            <path d="M644.24,865.601C644.083,867.043 644.555,869.117 644,870.161L644,865.601L644.24,865.601Z" style="fill:rgb(227,234,218);"/>
            <rect x="643.04" y="879.04" width="0.24" height="9.601" style="fill:rgb(227,234,218);"/>
            <path d="M650.48,317.92C651.524,317.364 653.596,317.837 655.041,317.68L656.48,317.68L656.48,317.92L650.48,317.92Z" style="fill:rgb(147,176,114);"/>
            <path d="M779.359,717.04L786.559,717.04C784.716,717.44 781.202,717.44 779.359,717.04" style="fill:rgb(187,205,167);"/>
            <path d="M643.76,894.641C644.468,895.133 643.532,897.269 644.24,897.761L644.24,901.601C643.547,901.495 644.453,899.787 643.76,899.681Z" style="fill:rgb(147,176,114);"/>
            <path d="M554.96,962.561L559.04,962.561L559.04,962.801L557.12,962.801C556.469,962.652 555.215,963.106 554.96,962.561" style="fill:rgb(147,176,114);"/>
            <path d="M519.68,718.96C520.237,720.084 519.763,722.237 519.92,723.761L519.68,723.761L519.68,718.96Z" style="fill:rgb(147,176,114);"/>
            <path d="M497.36,882.641C497.912,883.208 497.446,884.795 497.6,885.761L497.36,885.761L497.36,882.641Z" style="fill:rgb(147,176,114);"/>
        </g>
    </g>
</svg>
