<svg version="1.1" width="528" height="548" viewBox="-24 -25 528 548" xmlns="http://www.w3.org/2000/svg"> <!-- 480 * 498, plus 5% padding on each side -->
  <path class="plant" d="
    M 186.3506,469.81107 c 2.30415,4.7187 6.21009,9.9024 10.35977,13.4711 5.07099,4.361 11.39042,7.4451 18.07792,9.9209 4.66887,1.7285 10.838,3.2348 15.82755,4.1309 5.17137,0.9288 11.52032,0.9118 17.50406,0.8462 10.63331,-0.1168 19.02585,-1.1064 28.49829,-3.414 5.96798,-1.4539 11.63602,-3.0676 16.23798,-4.8783 8.68778,-3.4183 14.22651,-7.2137 15.38233,-9.6764 -0.86766,-4.0712 -2.23195,-10.4816 -3.24815,-16.2435 -1.07526,-6.0968 -1.79115,-11.5434 -2.25536,-15.5716 -1.30096,-11.28904 -0.63173,-19.23146 0.81063,-32.36311 2.12428,-19.34015 6.25464,-28.1503 12.28503,-39.64346 5.75947,-10.97684 15.26729,-26.31968 22.59444,-36.20353 7.63817,-10.3034 26.76207,-30.44027 33.73796,-37.9235 2.43362,0.71978 7.13249,2.28682 14.39888,3.72139 5.53796,1.09333 11.98624,2.39602 20.1003,2.12281 19.32022,-0.65055 26.35319,-4.3445 37.59165,-11.67133 10.19677,-6.6477 19.95308,-19.94922 25.06179,-32.69543 3.92817,-9.80076 5.13654,-19.77944 3.42708,-31.49005 -1.1499,-7.87737 -3.69514,-17.20506 -5.72908,-23.37328 -2.21241,-6.7095 -5.68601,-13.91604 -8.6032,-19.36992 0,0 11.72852,-14.01289 16.42171,-25.70318 4.04154,-10.06706 5.92547,-23.02051 5.11684,-31.11649 -0.83925,-8.40258 -7.97217,-23.81794 -12.45515,-29.31939 -5.90623,-7.248029 -11.68082,-14.762549 -18.97649,-20.655539 -7.15112,-5.77623 -15.2495,-10.50428 -23.73177,-14.04751 -8.78871,-3.67125 -19.30297,-5.79605 -27.63617,-7.26068 -1.25155,-6.67588 -2.97619,-11.3301 -7.57017,-19.36317 -5.7355,-10.31609 -12.03619,-14.97557 -21.93874,-22.22577 -12.28608,-8.995309 -29.41051,-18.2750092 -46.03188,-19.54524927 -7.1608,-0.54724 -17.6575,-0.77353 -30.85814,2.06555007 -11.47773,2.4685299 -22.79202,7.1319599 -31.39581,11.5274892 -17.27345,-6.6156493 -33.41149,-5.6383393 -46.14352,-2.18103 -10.7365,2.91543 -13.02744,4.66439 -22.85121,10.4454 -9.6444,4.16667 -20.12147,13.85444 -28.23475,25.07133 -30.21827,0.85805 -55.37201,11.48709 -73.280635,21.65003 -20.370357,11.55995 -38.648667,33.654939 -45.805699,47.709739 -7.987905,15.68645 -15.966474,37.87441 -9.226593,72.18746 -44.515645,27.36993 -39.9373173,71.14909 -14.91179,95.59381 21.94765,21.43827 58.307339,28.11849 92.744617,24.64524 10.28969,10.4295 49.21176,57.58283 49.21176,57.58283 0,0 39.2045,44.18234 25.49372,103.24324 z
    M 144.11473,286.9158 c 5.32705,-5.32704 9.89308,-12.93711 13.44445,-18.77149 4.03034,0.22391 12.30669,0.76699 20.44371,0.39303 8.15924,-0.37498 16.80616,-1.58037 20.26377,-3.60105 0.97018,2.91053 7.72182,27.01492 8.15051,41.82668 0.56203,19.41911 0.021,22.86108 -3.11801,29.67718 -1.70877,0.80766 -3.37061,1.15989 -5.468,0.40701 -7.47089,-2.68174 -19.92044,-12.01248 -28.84745,-20.33969 -13.82392,-12.89511 -24.86898,-29.59167 -24.86898,-29.59167 z
    M 298.00283,282.81386 c -0.26696,2.35814 -0.43887,10.82659 0.70175,18.22241 1.15855,7.51204 2.29467,14.49253 5.1278,17.20336 9.95509,-1.79371 16.90855,-8.1807 22.91748,-12.66497 0,0 19.50377,-15.22722 23.27056,-18.72495 -2.86995,-2.60088 -6.90579,-8.69949 -8.34076,-12.3766 0,0 -13.72483,4.02039 -20.63061,5.45536 -8.6995,1.88339 -18.92068,2.70602 -23.04622,2.88539 z
    " style="fill: #598527; stroke: none; fill-rule: evenodd;"/>
</svg>
